<svg width="42" height="75" viewBox="0 0 42 75" fill="none" xmlns="http://www.w3.org/2000/svg">
<path d="M28.375 58.4875V73.0875C28.375 73.5915 27.9665 74 27.4625 74H1.9125C1.40854 74 1 73.5915 1 73.0875V30.8636V1.9125C1 1.40854 1.40854 1 1.9125 1H27.4625C27.9665 1 28.375 1.40854 28.375 1.9125V30.8636V49.8188" stroke="#46475C" stroke-width="2" stroke-linecap="round"/>
<circle cx="14.6875" cy="15.2681" r="4.5625" fill="#46475C"/>
<circle cx="14.6873" cy="6.4749" r="1.825" fill="#46475C"/>
<circle cx="14.6871" cy="53.9249" r="8.2125" fill="white" stroke="#E4F1FF" stroke-width="2"/>
<rect x="11.9502" y="52.1001" width="29.2" height="3.65" rx="1.825" fill="#46475C"/>
<line x1="9.2998" y1="24.6377" x2="10.9498" y2="24.6377" stroke="#46475C" stroke-width="2" stroke-linecap="round"/>
<line x1="13.8623" y1="24.6377" x2="15.5123" y2="24.6377" stroke="#46475C" stroke-width="2" stroke-linecap="round"/>
<line x1="18.4248" y1="24.6377" x2="20.0748" y2="24.6377" stroke="#46475C" stroke-width="2" stroke-linecap="round"/>
<line x1="9.2998" y1="29.2002" x2="10.9498" y2="29.2002" stroke="#46475C" stroke-width="2" stroke-linecap="round"/>
<line x1="13.8623" y1="29.2002" x2="15.5123" y2="29.2002" stroke="#46475C" stroke-width="2" stroke-linecap="round"/>
<line x1="18.4248" y1="29.2002" x2="20.0748" y2="29.2002" stroke="#46475C" stroke-width="2" stroke-linecap="round"/>
<line x1="9.2998" y1="33.7627" x2="10.9498" y2="33.7627" stroke="#46475C" stroke-width="2" stroke-linecap="round"/>
<line x1="13.8623" y1="33.7627" x2="15.5123" y2="33.7627" stroke="#46475C" stroke-width="2" stroke-linecap="round"/>
<line x1="18.4248" y1="33.7627" x2="20.0748" y2="33.7627" stroke="#46475C" stroke-width="2" stroke-linecap="round"/>
<line x1="9.2998" y1="38.3252" x2="10.9498" y2="38.3252" stroke="#46475C" stroke-width="2" stroke-linecap="round"/>
<line x1="13.8623" y1="38.3252" x2="15.5123" y2="38.3252" stroke="#46475C" stroke-width="2" stroke-linecap="round"/>
<line x1="18.4248" y1="38.3252" x2="20.0748" y2="38.3252" stroke="#46475C" stroke-width="2" stroke-linecap="round"/>
</svg>
