<svg width="56" height="71" viewBox="0 0 56 71" fill="none" xmlns="http://www.w3.org/2000/svg">
<ellipse cx="21.2658" cy="63.4685" rx="21.2658" ry="5.75949" fill="#ECECF0"/>
<ellipse cx="42.0887" cy="67.0126" rx="13.7342" ry="3.71967" fill="#ECECF0"/>
<path d="M38.987 61.6206V6.31625C38.987 5.82689 38.5903 5.43018 38.1009 5.43018H37.2148H5.3161H4.43002C3.94066 5.43018 3.54395 5.82688 3.54395 6.31625V61.6206C3.54395 61.9383 3.72347 62.2288 4.00768 62.3709C14.8717 67.8029 27.6592 67.8029 38.5233 62.3709C38.8075 62.2288 38.987 61.9383 38.987 61.6206Z" fill="white"/>
<path d="M38.5233 62.3709L38.9705 63.2653L38.9705 63.2653L38.5233 62.3709ZM4.00768 62.3709L3.56046 63.2653L3.56047 63.2653L4.00768 62.3709ZM37.987 6.31625V61.6206H39.987V6.31625H37.987ZM4.54395 61.6206V6.31625H2.54395V61.6206H4.54395ZM4.43002 6.43018H5.3161V4.43018H4.43002V6.43018ZM38.1009 4.43018H37.2148V6.43018H38.1009V4.43018ZM5.3161 6.43018H37.2148V4.43018H5.3161V6.43018ZM38.076 61.4765C27.4935 66.7677 15.0374 66.7677 4.45489 61.4765L3.56047 63.2653C14.706 68.8381 27.8249 68.8381 38.9705 63.2653L38.076 61.4765ZM2.54395 61.6206C2.54395 62.3171 2.93747 62.9538 3.56046 63.2653L4.4549 61.4765C4.50947 61.5038 4.54395 61.5595 4.54395 61.6206H2.54395ZM37.987 61.6206C37.987 61.5595 38.0215 61.5038 38.076 61.4765L38.9705 63.2653C39.5935 62.9538 39.987 62.3171 39.987 61.6206H37.987ZM39.987 6.31625C39.987 5.2746 39.1426 4.43018 38.1009 4.43018V6.43018C38.038 6.43018 37.987 6.37917 37.987 6.31625H39.987ZM4.54395 6.31625C4.54395 6.37917 4.49293 6.43018 4.43002 6.43018V4.43018C3.38838 4.43018 2.54395 5.27459 2.54395 6.31625H4.54395Z" fill="#46475C"/>
<path d="M38.987 6.31648C38.987 9.25266 31.7485 11.6329 21.0227 11.6329C10.2969 11.6329 3.54395 9.25266 3.54395 6.31648C3.54395 3.38029 10.2969 1 21.0227 1C31.7485 1 38.987 3.38029 38.987 6.31648Z" fill="white" stroke="#E4F1FF" stroke-width="2"/>
<path d="M29.6831 56.2216C27.1833 56.6055 24.262 56.8227 21.0226 56.8227C17.3522 56.8227 14.1471 56.5439 11.5186 56.0596" stroke="#CECED8" stroke-width="2" stroke-linecap="round"/>
<ellipse cx="21.266" cy="8.08871" rx="3.5443" ry="0.886076" fill="#46475C"/>
<ellipse cx="29.2406" cy="6.31625" rx="3.5443" ry="0.886076" fill="#46475C"/>
<ellipse cx="13.2914" cy="6.31625" rx="3.5443" ry="0.886076" fill="#46475C"/>
<ellipse cx="21.266" cy="4.54428" rx="3.5443" ry="0.886076" fill="#46475C"/>
<path d="M29.5601 61.5476C29.3879 59.4812 31.0186 57.709 33.0922 57.709H50.1845C52.2631 57.709 53.8955 59.4895 53.7155 61.5603L53.4404 64.7235C53.2834 66.5291 51.7896 67.9253 49.9776 67.9601L33.4504 68.278C31.5812 68.3139 30.0055 66.8918 29.8502 65.0287L29.5601 61.5476Z" fill="white"/>
<path d="M54.9368 56.8228C54.9368 59.759 48.9861 62.1393 41.6456 62.1393C34.3051 62.1393 28.3545 59.759 28.3545 56.8228C28.3545 53.8866 34.3051 51.5063 41.6456 51.5063C48.9861 51.5063 54.9368 53.8866 54.9368 56.8228Z" fill="#E4F1FF"/>
<path d="M54.9368 56.8228C54.9368 59.759 48.9861 62.1393 41.6456 62.1393C34.3051 62.1393 28.3545 59.759 28.3545 56.8228M54.9368 56.8228C54.9368 53.8866 48.9861 51.5063 41.6456 51.5063C34.3051 51.5063 28.3545 53.8866 28.3545 56.8228M54.9368 56.8228L54.0893 62.3311C53.5573 65.7891 50.5819 68.3418 47.0832 68.3418H36.2081C32.7094 68.3418 29.7339 65.7891 29.2019 62.3311L28.3545 56.8228" stroke="#46475C" stroke-width="2"/>
<path d="M39.873 65.2407H43.4174" stroke="#46475C" stroke-width="2" stroke-linecap="round"/>
</svg>
