<svg width="64" height="64" viewBox="0 0 64 64" fill="none" xmlns="http://www.w3.org/2000/svg">
<circle cx="32" cy="32" r="31" fill="white" stroke="#46475C" stroke-width="2"/>
<circle cx="32" cy="32" r="27" fill="#46475C"/>
<circle cx="32" cy="32" r="23" fill="#CECED8"/>
<path d="M55 32C55 28.9796 54.4051 25.9888 53.2492 23.1983C52.0934 20.4078 50.3992 17.8723 48.2635 15.7365C46.1277 13.6008 43.5922 11.9066 40.8017 10.7508C38.0112 9.59491 35.0204 9 32 9L32 32H55Z" fill="#E4F1FF"/>
<circle cx="32" cy="32" r="20" fill="#46475C"/>
<path d="M31 15C31 15.5523 31.4477 16 32 16C32.5523 16 33 15.5523 33 15H31ZM31 5V15H33V5H31Z" fill="#E4F1FF"/>
<path d="M47 31C46.4477 31 46 31.4477 46 32C46 32.5523 46.4477 33 47 33V31ZM55 31H47V33H55V31Z" fill="#E4F1FF"/>
<path d="M30.86 25.3H21V27.68H27.68C27.68 27.68 23.34 31.3 22.8 38.28H25.66C26.24 31.74 29.88 28.44 30.86 27.6V25.3Z" fill="white"/>
<path d="M34.2094 31.8C34.2094 30.44 34.4094 29.28 34.9094 28.5C35.3094 27.86 35.9294 27.44 36.8694 27.44C37.8294 27.44 38.4094 27.86 38.8094 28.5C39.3294 29.28 39.5294 30.44 39.5294 31.8C39.5294 33.16 39.3294 34.32 38.8094 35.1C38.4094 35.74 37.8294 36.16 36.8694 36.16C35.9294 36.16 35.3094 35.74 34.9094 35.1C34.4094 34.32 34.2094 33.16 34.2094 31.8ZM31.4494 31.8C31.4494 33.46 31.7094 35.08 32.5894 36.42C33.4494 37.7 34.8494 38.6 36.8694 38.6C38.8894 38.6 40.2894 37.7 41.1294 36.42C42.0094 35.08 42.2894 33.46 42.2894 31.8C42.2894 30.14 42.0094 28.52 41.1294 27.18C40.2894 25.9 38.8894 25 36.8694 25C34.8494 25 33.4494 25.9 32.5894 27.18C31.7094 28.52 31.4494 30.14 31.4494 31.8Z" fill="white"/>
</svg>
