<svg width="54" height="67" viewBox="0 0 54 67" fill="none" xmlns="http://www.w3.org/2000/svg">
<rect width="3.44936" height="22.4209" rx="1.72468" transform="matrix(0.710654 -0.703541 0.710654 0.703541 3.94141 15.7466)" fill="white" stroke="#46475C" stroke-width="2"/>
<rect width="3.44936" height="22.4209" rx="1.72468" transform="matrix(-0.710654 -0.703541 -0.710654 0.703541 50.0586 15.7466)" fill="white" stroke="#46475C" stroke-width="2"/>
<path d="M6.98064 65.3198L45.8924 65.3198C47.6481 65.3198 49.1265 64.0073 49.3347 62.2641L49.5332 60.6009L3.33987 60.6009L3.53842 62.2641C3.74652 64.0073 5.225 65.3198 6.98064 65.3198Z" fill="#E4F1FF"/>
<path d="M3.33987 60.6009L3.53842 62.2641C3.74652 64.0073 5.225 65.3198 6.98065 65.3198L45.8924 65.3198C47.6481 65.3198 49.1265 64.0073 49.3347 62.2641L49.5332 60.6009M3.33987 60.6009L49.5332 60.6009M3.33987 60.6009L3.33987 60.1719M49.5332 60.6009L49.5332 61.0299" stroke="#46475C" stroke-width="2"/>
<path d="M4.15169 29.8282C4.33054 28.0576 5.82113 26.71 7.6008 26.71H46.3992C48.1789 26.71 49.6695 28.0576 49.8483 29.8282L52.6146 57.2146C52.8209 59.2565 51.2179 61.0297 49.1655 61.0297H4.83448C2.78214 61.0297 1.1791 59.2565 1.38536 57.2146L4.15169 29.8282Z" fill="white" stroke="#46475C" stroke-width="2"/>
<path d="M10.5332 30.5708H12.5645M43.0332 30.5708H41.002M18.6582 30.5708H16.627M22.7207 30.5708H24.752M34.9082 30.5708H36.9395M30.8457 30.5708H28.8145" stroke="#46475C" stroke-width="2" stroke-linecap="round"/>
<path fill-rule="evenodd" clip-rule="evenodd" d="M26.9052 19.3569C27.668 19.3569 28.2862 19.9751 28.2862 20.7379C28.2862 21.5007 27.668 22.1197 26.9052 22.1197C26.1425 22.1197 25.5234 21.5007 25.5234 20.7379C25.5234 19.9751 26.1425 19.3569 26.9052 19.3569Z" fill="#E4F1FF"/>
<path d="M16.9141 12.3724C22.2998 5.87391 31.0237 5.87391 36.4095 12.3724" stroke="#E4F1FF" stroke-width="2" stroke-linecap="round" stroke-linejoin="round"/>
<path d="M21.1582 17.3399C24.2252 13.6393 29.1931 13.6393 32.2601 17.3399" stroke="#E4F1FF" stroke-width="2" stroke-linecap="round" stroke-linejoin="round"/>
<path d="M12.04 7.49849C20.1163 -1.16616 33.207 -1.16616 41.2832 7.49849" stroke="#E4F1FF" stroke-width="2" stroke-linecap="round" stroke-linejoin="round"/>
</svg>
