<svg xmlns="http://www.w3.org/2000/svg" width="600" height="600" viewBox="0 0 600 600">
    <g fill="none" fill-rule="evenodd">
        <path fill="#E4F1FF" d="M536.842 221.053c34.881 0 63.158 28.276 63.158 63.158 0 34.88-28.277 63.157-63.158 63.157l-189.474-.031v189.505c0 34.881-28.276 63.158-63.157 63.158-34.882 0-63.158-28.277-63.158-63.158V315.79c0-25.61 15.243-47.66 37.151-57.572 9.925-21.921 31.975-37.164 57.585-37.164h221.053z"/>
        <path fill="#F8FBFF" d="M63.158 347.368C28.277 347.368 0 319.092 0 284.211c0-34.882 28.277-63.158 63.158-63.158h157.895V63.158C221.053 28.277 249.329 0 284.21 0c34.88 0 63.157 28.277 63.157 63.158V284.21c0 33.295-25.764 60.573-58.444 62.984l-4.713.173H63.158z"/>
    </g>
</svg>
