<svg xmlns="http://www.w3.org/2000/svg" width="146" height="146" viewBox="0 0 146 146">
    <g fill="none" fill-rule="evenodd">
        <circle cx="73" cy="73" r="73" fill="#017AFF"/>
        <circle cx="73" cy="73" r="63" stroke="#12FFCD" stroke-width="2"/>
        <g fill="#017AFF" stroke="#FFF" stroke-width="4" transform="translate(61 29)">
            <ellipse cx="12" cy="79.101" rx="7" ry="6.899"/>
            <path d="M14.404 2l-5.256.014c-1.93.124-3.625 1.018-4.808 2.364-1.183 1.345-1.853 3.142-1.73 5.07L5.484 54.18c.11 1.719.879 3.247 2.05 4.345 1.171 1.098 2.745 1.767 4.467 1.767 1.722 0 3.296-.669 4.467-1.767 1.171-1.098 1.94-2.626 2.05-4.345L21.404 9c0-1.933-.784-3.683-2.05-4.95C18.086 2.784 16.336 2 14.403 2z"/>
        </g>
    </g>
</svg>
