<svg xmlns="http://www.w3.org/2000/svg" xmlns:xlink="http://www.w3.org/1999/xlink" width="67" height="68" viewBox="0 0 67 68">
    <defs>
        <circle id="a" cx="30" cy="30" r="30"/>
        <path id="c" d="M13.8.003L.43 36.953a1.764 1.764 0 0 0 2.393 2.204L38.72 22.74 13.8.003z"/>
    </defs>
    <g fill="none" fill-rule="evenodd">
        <g transform="translate(22.753 -1)">
            <path fill="#FFD200" d="M40.211 38.82a5.482 5.482 0 0 0-5.193-1.419c-2.186.551-3.74 2.348-4.106 4.456"/>
            <path fill="#FFF" d="M8.084 1.708a7.425 7.425 0 0 0-4.943 4.75 7.536 7.536 0 0 0 1.654 7.611"/>
            <path fill="#FFD200" d="M35.036 17.095a5.381 5.381 0 0 0 3.458-3.564 5.453 5.453 0 0 0-1.387-5.464"/>
            <path stroke="#FFD200" stroke-linecap="round" stroke-width="1.764" d="M19.56 3.575s1.468 8.29-3.673 12.929"/>
            <path stroke="#004D9E" stroke-linecap="round" stroke-width="1.764" d="M30.414 31.002s6.346-5.425 12.874-3.21"/>
            <path fill="#FFF" d="M29.398 16.796v2.64c0 .975-.79 1.765-1.764 1.765h-2.577c-.974 0-1.764-.79-1.764-1.764v-2.641c0-.974.79-1.764 1.764-1.764h2.577c.974 0 1.764.79 1.764 1.764z"/>
            <ellipse cx="28.526" cy="4.457" fill="#003C7C" rx="1.744" ry="1.763"/>
            <path stroke="#FFD200" stroke-linecap="round" stroke-width="1.96" d="M19.56 3.575s1.468 8.29-3.673 12.929"/>
            <path stroke="#003C7C" stroke-linecap="round" stroke-width="1.96" d="M30.414 31.002s6.346-5.425 12.874-3.21"/>
        </g>
        <g transform="translate(0 7.991)">
            <mask id="b" fill="#fff">
                <use xlink:href="#a"/>
            </mask>
            <use fill="#2E97FF" xlink:href="#a"/>
            <g mask="url(#b)">
                <g transform="translate(22.753 -8.991)">
                    <path fill="#FFD200" d="M40.211 38.82a5.482 5.482 0 0 0-5.193-1.419c-2.186.551-3.74 2.348-4.106 4.456"/>
                    <path fill="#FFF" d="M8.084 1.708a7.425 7.425 0 0 0-4.943 4.75 7.536 7.536 0 0 0 1.654 7.611"/>
                    <path fill="#FFD200" d="M35.036 17.095a5.381 5.381 0 0 0 3.458-3.564 5.453 5.453 0 0 0-1.387-5.464"/>
                    <path stroke="#FFD200" stroke-linecap="round" stroke-width="1.764" d="M19.56 3.575s1.468 8.29-3.673 12.929"/>
                    <path stroke="#004D9E" stroke-linecap="round" stroke-width="1.764" d="M30.414 31.002s6.346-5.425 12.874-3.21"/>
                    <path fill="#FFF" d="M29.398 16.796v2.64c0 .975-.79 1.765-1.764 1.765h-2.577c-.974 0-1.764-.79-1.764-1.764v-2.641c0-.974.79-1.764 1.764-1.764h2.577c.974 0 1.764.79 1.764 1.764z"/>
                    <ellipse cx="28.526" cy="4.457" fill="#003C7C" rx="1.744" ry="1.763"/>
                    <path stroke="#FFD200" stroke-linecap="round" stroke-width="1.96" d="M19.56 3.575s1.468 8.29-3.673 12.929"/>
                    <path stroke="#003C7C" stroke-linecap="round" stroke-width="1.96" d="M30.414 31.002s6.346-5.425 12.874-3.21"/>
                </g>
                <g transform="translate(6.057 15.404)">
                    <mask id="d" fill="#fff">
                        <use xlink:href="#c"/>
                    </mask>
                    <use fill="#003C7C" xlink:href="#c"/>
                    <path stroke="#017AFF" stroke-linecap="round" stroke-linejoin="round" stroke-width="3.528" d="M5.127 7.55c1.241 4.998 4.462 9.916 9.662 14.754 7.8 7.256 12.787 8.248 15.607 9.406M.32 20.188c0 3.254 2.423 6.993 7.271 11.216 2.747 2.394 6.045 4.403 9.893 6.028" mask="url(#d)"/>
                </g>
                <path fill="#FFF" d="M22.086 11.567c-4.289 4.334-2.203 13.47 4.659 20.405 6.863 6.935 15.905 9.043 20.194 4.71 4.29-4.335 2.203-13.472-4.66-20.406-6.862-6.935-15.904-9.043-20.193-4.71z"/>
                <path fill="#FFD200" d="M25.097 14.833c-3.318 3.353-1.705 10.421 3.603 15.785 5.31 5.365 12.304 6.996 15.622 3.643 3.318-3.352 1.704-10.42-3.605-15.784-5.308-5.366-12.303-6.996-15.62-3.644z"/>
            </g>
            <g mask="url(#b)">
                <path fill="#FFF" d="M22.086 11.567c-4.289 4.334-2.203 13.47 4.659 20.405 6.863 6.935 15.905 9.043 20.194 4.71 4.29-4.335 2.203-13.472-4.66-20.406-6.862-6.935-15.904-9.043-20.193-4.71z"/>
                <path fill="#5DDAED" d="M25.097 14.833c-3.318 3.353-1.705 10.421 3.603 15.785 5.31 5.365 12.304 6.996 15.622 3.643 3.318-3.352 1.704-10.42-3.605-15.784-5.308-5.366-12.303-6.996-15.62-3.644z"/>
            </g>
        </g>
    </g>
</svg>
