<svg xmlns="http://www.w3.org/2000/svg" xmlns:xlink="http://www.w3.org/1999/xlink" width="72" height="81" viewBox="0 0 72 81">
    <defs>
        <ellipse id="a" cx="36" cy="35.915" rx="36" ry="35.915"/>
    </defs>
    <g fill="none" fill-rule="evenodd">
        <use fill="#2E97FF" transform="translate(0 9.159)" xlink:href="#a"/>
        <path stroke="#FFF" stroke-linecap="round" stroke-linejoin="round" stroke-width="1.2" d="M36.17 17.854v-2.782M33.84 14.556h4.66"/>
        <path fill="#D1E0F9" d="M20.933 45.118c0 9.718 7.896 17.522 17.637 17.597 5.988.045 15.23-7.674 15.23-17.392 0-9.719-8.419-17.803-15.23-17.8-9.74.005-17.637 7.878-17.637 17.595"/>
        <path fill="#FF536A" d="M34.431 45.118a2.376 2.376 0 0 0 2.38 2.374 2.377 2.377 0 0 0 2.38-2.374 2.378 2.378 0 0 0-2.38-2.374 2.377 2.377 0 0 0-2.38 2.374"/>
        <path fill="#5DDAED" d="M39.993 24.276v-5.59a.627.627 0 0 0-.628-.626h-6.389a.627.627 0 0 0-.627.626v5.59"/>
        <path fill="#FFF" d="M26.056 25.63l-2.828-3.953a.462.462 0 0 0-.645-.089l-3.727 2.823a.458.458 0 0 0-.088.644l2.728 3.697 4.56-3.123zM46.1 25.463l3.012-3.787a.46.46 0 0 1 .644-.087l3.729 2.822a.46.46 0 0 1 .089.644l-2.942 4.04"/>
        <path fill="#003C7C" d="M13.8 45.118c0 12.327 10.015 22.32 22.37 22.32s22.37-9.993 22.37-22.32c0-12.325-10.015-22.318-22.37-22.318S13.8 32.793 13.8 45.118z"/>
        <path fill="#5DDAED" d="M18.533 45.118c0 9.718 7.896 17.597 17.637 17.597 9.74 0 17.639-7.88 17.639-17.597 0-9.717-7.899-17.595-17.64-17.595-9.74 0-17.636 7.878-17.636 17.595z"/>
        <path fill="#5DDAED" d="M53.809 45.118c0-9.717-7.899-17.595-17.64-17.595V45.12h17.64z"/>
        <path fill="#FFF" d="M34.4 42.584l1.519-9.234c.007-.05.105-.05.114-.001l1.843 9.326"/>
        <path fill="#017AFF" d="M33.202 45.118a2.965 2.965 0 0 0 2.969 2.962 2.965 2.965 0 0 0 2.967-2.962 2.965 2.965 0 0 0-2.967-2.961 2.965 2.965 0 0 0-2.97 2.961z"/>
        <g fill="#FFD200">
            <path d="M53.048 7.29a6.287 6.287 0 0 0-6.12-.555 6.327 6.327 0 0 0-3.741 5.796M43.314.912a5.68 5.68 0 0 0-4.102 3.282 5.738 5.738 0 0 0 .767 5.909"/>
        </g>
    </g>
</svg>
