<svg xmlns="http://www.w3.org/2000/svg" width="69" height="42" viewBox="0 0 69 42">
    <g fill="none" fill-rule="evenodd" stroke="#FFF" stroke-linecap="round">
        <g stroke-linejoin="round" stroke-width="2.18">
            <path d="M58.69 18.772l3.435-2.576a3.221 3.221 0 0 1 4.21 4.853l-.558.558M24.677 2.814a34.424 34.424 0 0 1 8.503-1.05c14.088 0 25.51 8.25 25.51 18.425 0 4.43-2.229 8.2-5.668 11.338 0 0-1.949 5.798-2.835 8.504h-4.252l-1.417-4.252c-3.12 1.19-6.203 1.417-9.92 1.417-3.313 0-8.484-.459-11.339-1.417 0 0-.578 1.755-1.386 4.252H17.59c-.175-3.28-1.417-7.086-1.417-7.086-.309-.231-11.026-6.608-12.648-9.556-1.775-3.23-2.18-8.343-.246-8.33 2.233.014 3.767-.278 4.981-.818.56-2.024 1.68-4.106 3.661-5.39-1.387-2.296-3.513-5.64-2.834-7.086.605-1.29 9.322-.953 12.755 4.252"/>
        </g>
        <path stroke-width="2" d="M28.691 10.697c3.991-2.06 8.167-2.06 12.527 0"/>
    </g>
</svg>
