<svg xmlns="http://www.w3.org/2000/svg" width="45" height="45" viewBox="0 0 45 45">
    <g fill="none" fill-rule="evenodd" stroke="#FFF" stroke-width="1.88">
        <path stroke-linejoin="round" d="M22.5 13l2.628 6.895 6.872.381-5.248 4.85L28.37 32 22.5 28.353l-5.871 3.635 1.62-6.86L13 20.276l6.872-.381z"/>
        <path d="M22.442 2l3.218 2.51 3.882-1.258 2.164 3.46 4.079.144.85 3.992 3.784 1.53-.566 4.043 3.031 2.732-1.914 3.605 1.914 3.604-3.031 2.733.566 4.042-3.784 1.53-.85 3.991-4.08.145-2.163 3.46-3.882-1.259-3.218 2.511-3.217-2.51-3.883 1.258-2.164-3.46-4.078-.145-.852-3.991-3.782-1.53.565-4.042L2 26.362l1.914-3.604L2 19.153l3.031-2.732-.565-4.042 3.782-1.53.852-3.993 4.078-.145 2.164-3.459 3.883 1.259z"/>
    </g>
</svg>
