<?xml version="1.0" encoding="UTF-8"?>
<svg width="108px" height="15px" viewBox="0 0 108 15" version="1.1" xmlns="http://www.w3.org/2000/svg" xmlns:xlink="http://www.w3.org/1999/xlink">
    <!-- Generator: sketchtool 51.1 (57501) - http://www.bohemiancoding.com/sketch -->
    <title>2354D457-4051-4C22-97AD-FC0E3BDC0899</title>
    <desc>Created with sketchtool.</desc>
    <defs></defs>
    <g id="Desktop" stroke="none" stroke-width="1" fill="none" fill-rule="evenodd">
        <g id="Desktop-Styles" transform="translate(-281.000000, -642.000000)" fill="#0161C7">
            <path d="M335.464651,654.504765 L330.298531,656.944373 L331.285172,651.777201 L327.105693,648.117789 L332.881591,647.363909 L335.464651,642.66266 L338.047711,647.363909 L343.823609,648.117789 L339.64413,651.777201 L340.630772,656.944373 L335.464651,654.504765 Z M379.750899,654.504765 L374.584778,656.944373 L375.57142,651.777201 L371.391941,648.117789 L377.167839,647.363909 L379.750899,642.66266 L382.333959,647.363909 L388.109857,648.117789 L383.930378,651.777201 L384.917019,656.944373 L379.750899,654.504765 Z M289.949726,654.504765 L284.783606,656.944373 L285.770247,651.777201 L281.590768,648.117789 L287.366666,647.363909 L289.949726,642.66266 L292.532786,647.363909 L298.308684,648.117789 L294.129205,651.777201 L295.115846,656.944373 L289.949726,654.504765 Z M312.676272,654.504765 L307.510152,656.944373 L308.496793,651.777201 L304.317314,648.117789 L310.093212,647.363909 L312.676272,642.66266 L315.259332,647.363909 L321.03523,648.117789 L316.855751,651.777201 L317.842392,656.944373 L312.676272,654.504765 Z M358.191197,654.504765 L353.025077,656.944373 L354.011718,651.777201 L349.832239,648.117789 L355.608137,647.363909 L358.191197,642.66266 L360.774257,647.363909 L366.550155,648.117789 L362.370676,651.777201 L363.357317,656.944373 L358.191197,654.504765 Z" id="Stars"></path>
        </g>
    </g>
</svg>