<svg xmlns="http://www.w3.org/2000/svg" width="54" height="47" viewBox="0 0 54 47">
    <g fill="none" fill-rule="evenodd" stroke="#FFF" stroke-width="1.891">
        <path d="M40.78 2.162L39.409 1H26.906c-.994 0-1.948.104-2.651.806L2.09 23.828a3.639 3.639 0 0 0 0 5.198L17.922 44.82c1.454 1.455 3.813 1.437 5.268-.016L45.417 22.63c.703-.704 1.069-1.667 1.069-2.661V7.47l-1.718-1.523"/>
        <path stroke-linecap="round" d="M37.31 5.588l4.588 4.588"/>
        <path d="M39.086 7.456a7.21 7.21 0 0 1 6.57-4.235 7.21 7.21 0 0 1 3.34 13.603 7.187 7.187 0 0 1-3.34.817M20.104 21.647h-1.147a2.295 2.295 0 0 1-2.294-2.294v-1.147a2.295 2.295 0 0 1 2.294-2.294h1.147a2.295 2.295 0 0 1 2.294 2.294v1.147a2.295 2.295 0 0 1-2.294 2.294zM30.427 29.676H29.28a2.295 2.295 0 0 1-2.294-2.294v-1.147a2.295 2.295 0 0 1 2.294-2.294h1.147a2.295 2.295 0 0 1 2.294 2.294v1.147a2.295 2.295 0 0 1-2.294 2.294z"/>
        <path stroke-linecap="round" d="M20.104 30.824l9.176-16.059"/>
    </g>
</svg>
