<svg xmlns="http://www.w3.org/2000/svg" width="20" height="20" viewBox="0 0 20 20">
    <g fill="none" fill-rule="evenodd">
        <path fill="#FFF" d="M10 5.144L6.396 1.518l-.113-.107-.09-.08-.12-.1a3.446 3.446 0 0 0-4.568.287L1.4 1.63l-.181.207-.153.225-.083.13-.098.178a3.461 3.461 0 0 0 .621 4.024L5.087 10l-3.582 3.605-.106.113-.079.09-.099.12a3.461 3.461 0 0 0 .284 4.554l.148.14a3.446 3.446 0 0 0 4.743-.14L10 14.855l3.604 3.627.113.107.09.08.12.1a3.446 3.446 0 0 0 4.568-.287l.106-.113.079-.09.099-.12.121-.168a3.461 3.461 0 0 0-.405-4.386l-3.583-3.606 3.583-3.604.106-.113.079-.09.099-.12a3.461 3.461 0 0 0-.284-4.554 3.446 3.446 0 0 0-4.891 0L10 5.144z"/>
        <path fill="#46475C" d="M3.2 3.37l.078-.09a.946.946 0 0 1 1.255-.08l.09.08L10 8.69l5.377-5.41a.946.946 0 0 1 1.345 0 .961.961 0 0 1 .079 1.263l-.08.09L11.388 10l5.335 5.367a.961.961 0 0 1 .079 1.263l-.08.09a.946.946 0 0 1-1.254.08l-.09-.08L10 11.31l-5.377 5.41a.946.946 0 0 1-1.345 0 .961.961 0 0 1-.079-1.263l.08-.09L8.611 10 3.278 4.633A.961.961 0 0 1 3.2 3.37l.08-.09-.08.09z"/>
    </g>
</svg>
