<?xml version="1.0" encoding="UTF-8"?>
<svg width="142px" height="24px" viewBox="0 0 142 24" version="1.1" xmlns="http://www.w3.org/2000/svg" xmlns:xlink="http://www.w3.org/1999/xlink">
    <!-- Generator: Sketch 51.2 (57519) - http://www.bohemiancoding.com/sketch -->
    <title>CNBC</title>
    <desc>Created with Sketch.</desc>
    <defs></defs>
    <g id="Desktop" stroke="none" stroke-width="1" fill="none" fill-rule="evenodd" opacity="0.600000024">
        <g id="Desktop-001" transform="translate(-656.000000, -2846.000000)" fill="#7D91A5">
            <g id="Featured" transform="translate(298.000000, 2731.000000)">
                <g id="CNBC" transform="translate(358.803908, 115.560535)">
                    <path d="M134.192572,10.341199 C133.865902,8.88099567 132.564271,8.49380297 131.109151,8.36953034 C126.406012,7.96842653 125.572928,11.2041519 125.572928,12.5702234 C125.572928,14.9077544 126.31412,16.8404719 130.931426,16.8404719 C131.782182,16.8404719 134.132489,16.0331636 134.132489,14.7227365 L140.772927,14.7227365 C140.50634,18.6104295 133.404424,19.5420105 130.30737,19.5420105 C123.890603,19.5420105 118.397296,18.4425687 118.662873,12.6230856 C118.852715,8.46922667 123.117096,5.55438438 131.595874,5.73615628 C136.324763,5.83724372 140.865829,7.19450483 140.88552,10.341199 L134.192572,10.341199 Z" id="Fill-4"></path>
                    <path d="M68.7285016,10.341199 C68.4013267,8.88099567 67.1007056,8.49380297 65.6450804,8.36953034 C60.9424464,7.96842653 60.1083525,11.2041519 60.1083525,12.5702234 C60.1083525,14.9077544 60.8500498,16.8404719 65.4668508,16.8404719 C66.3181114,16.8404719 68.6689235,16.0331636 68.6689235,14.7227365 L75.3088568,14.7227365 C75.0407552,18.6104295 67.9403535,19.5420105 64.8438049,19.5420105 C58.4265322,19.5420105 52.9332257,18.4425687 53.1988028,12.6230856 C53.388645,8.46922667 57.6520164,5.55438438 66.1328133,5.73615628 C70.8606922,5.83724372 75.4012534,7.19450483 75.4209445,10.341199 L68.7285016,10.341199 Z" id="Fill-1"></path>
                    <polygon id="Fill-7" points="76.9202826 6.54640703 85.6549368 6.54640703 93.1083787 15.9755362 93.1682437 15.9755362 93.1682437 6.54640703 98.7668956 6.54640703 98.7668956 19.6392211 90.3985944 19.6392211 82.5798228 10.2096313 82.5184228 10.2096313 82.5184228 19.6392211 76.9202826 19.6392211"></polygon>
                    <path d="M105.142991,16.8953726 L106.898099,16.8953726 C110.155106,16.8953726 111.350192,16.5867645 111.350192,15.571582 C111.350192,14.4836233 109.841147,14.1202027 107.408091,14.1202027 L105.142991,14.1202027 L105.142991,16.8953726 Z M105.142991,11.6338347 L106.898099,11.6338347 C109.600189,11.6338347 111.034191,11.4431425 111.034191,10.4274994 C111.034191,9.34000131 109.841147,8.97704132 107.408091,8.97704132 L105.142991,8.97704132 L105.142991,11.6338347 Z M99.0144063,6.54640703 L109.600189,6.54640703 C114.687859,6.54640703 117.680936,7.83196707 117.680936,9.77389509 C117.680936,10.9208118 116.428162,12.3371848 113.635202,12.7540361 L113.635202,12.7904242 C116.998394,12.9709829 118.239426,14.894026 118.239426,16.0469306 C118.239426,18.3545823 115.321393,19.6392211 109.63133,19.6392211 L99.0144063,19.6392211 L99.0144063,6.54640703 Z" id="Fill-9"></path>
                    <path d="M37.0806391,13.7014724 L24.5490264,21.2758228 L28.7693025,12.2089862 L30.7716326,7.98664731 C31.5830763,6.6223003 33.1100773,5.75220467 34.7762929,5.72810615 C36.3722603,5.72810615 37.7879923,6.42256063 38.6855797,7.66757363 C39.609318,8.91258662 39.6608504,10.9479847 38.7373686,12.2089862 C38.3235708,12.7993999 37.7105655,13.3260916 37.0806391,13.7014724" id="Fill-14"></path>
                    <path d="M29.6583164,6.04225405 L23.700848,19.6392211 L23.435398,18.1562877 L21.643302,7.00906382 C21.5686211,6.32898941 21.8584718,5.75528074 22.4226456,5.37812261 L23.2776561,4.88674624 C23.3274434,4.71422911 23.0787534,4.65712 22.9621723,4.59977292 L21.2861645,4.58335405 C21.1789492,2.97668421 21.9087521,1.51826012 23.3188169,0.641159255 C24.4143837,-0.047719476 26.0820115,-0.227851151 27.3015536,0.329438655 C28.8863669,0.952403946 29.9895744,2.58358312 30.014468,4.24712412 C30.0063345,4.86199896 29.8986263,5.4930547 29.6583164,6.04225405" id="Fill-16"></path>
                    <path d="M18.4818519,19.6392211 L12.611402,6.03228289 C11.9802053,4.57590675 12.2458555,2.66131015 13.325229,1.48309687 C14.4793397,0.247635718 16.1067863,-0.275909057 17.7840577,0.141453996 C19.2038186,0.476864714 20.5323162,1.78596419 20.8813367,3.18509247 C21.0470906,3.70887479 21.0219315,4.33860129 20.989126,4.91131746 L18.4818519,19.6392211 Z" id="Fill-18"></path>
                    <path d="M5.7701563,14.0314317 C4.50816952,13.0516123 3.94246022,11.7449552 4.12499713,10.2310464 C4.30779259,8.70140862 5.65716957,7.20369134 7.26716581,6.74153858 C8.92085716,6.27961713 10.722181,6.64600851 11.9234084,7.75350972 C12.4280997,8.18374201 12.7414633,8.69354416 13.0023411,9.21930653 L18.9472012,22.0941237 L5.7701563,14.0314317 Z" id="Fill-20"></path>
                    <path d="M3.99673472,22.9089686 C2.41687222,22.7309839 1.19893734,21.8847543 0.456451647,20.4450778 C-0.295721883,18.9918241 -0.100474725,16.9295715 0.910786318,15.6409722 C2.01271557,14.3289214 3.60698562,13.6685759 5.21342757,13.9927006 C5.86822592,14.0976153 6.4172033,14.3775524 6.93339108,14.700196 L19.2250194,22.9124246 L3.99673472,22.9089686 Z" id="Fill-22"></path>
                    <path d="M38.9587277,22.9089686 C40.5393576,22.7309839 41.756316,21.8847543 42.4995574,20.4450778 C43.2514931,18.9918241 43.0559948,16.9295715 42.0449679,15.6409722 C40.9427747,14.3289214 39.3482338,13.6685759 37.7417693,13.9927006 C37.0872101,14.0976153 36.5384734,14.3775524 36.02203,14.700196 L23.7307255,22.9124246 L38.9587277,22.9089686 Z" id="Fill-24"></path>
                </g>
            </g>
        </g>
    </g>
</svg>