<?xml version="1.0" encoding="UTF-8"?>
<svg width="106px" height="24px" viewBox="0 0 106 24" version="1.1" xmlns="http://www.w3.org/2000/svg" xmlns:xlink="http://www.w3.org/1999/xlink">
    <!-- Generator: Sketch 51.2 (57519) - http://www.bohemiancoding.com/sketch -->
    <title>Fortune</title>
    <desc>Created with Sketch.</desc>
    <defs></defs>
    <g id="Desktop" stroke="none" stroke-width="1" fill="none" fill-rule="evenodd" opacity="0.600000024">
        <g id="Desktop-001" transform="translate(-1395.000000, -2847.000000)" fill="#7D91A5">
            <g id="Featured" transform="translate(298.000000, 2731.000000)">
                <g id="Fortune" transform="translate(1097.228249, 116.378836)">
                    <path d="M82.5480875,11.8704134 L82.5480875,22.0564273 L78.5568844,22.0564273 L78.5568844,0 L82.613739,0 C83.9115879,3.79103099 85.208616,7.579798 86.5060545,11.3681877 C86.548728,11.365169 86.5914015,11.3621504 86.6336647,11.3591318 L86.6336647,0.00452795579 L90.7705322,0.00452795579 L90.7705322,22.0907643 C89.3393287,22.0907643 87.9196142,22.1069895 86.501541,22.0681245 C86.3402844,22.0639739 86.1121453,21.7741847 86.0444422,21.5791053 C85.0247917,18.6272555 84.0272987,15.668991 83.0236508,12.7122359 C82.9231219,12.4164094 82.8168485,12.1224696 82.713037,11.8273979 C82.6584641,11.8417364 82.6030707,11.8560749 82.5480875,11.8704134" id="Fill-1"></path>
                    <path d="M34.67185,11.6329138 C36.2957287,11.126282 37.2048182,10.1496107 37.1349486,8.47693372 C37.110612,7.88957287 37.1314159,7.30070305 37.1314159,6.71221048 C37.1314159,6.21463247 37.1447618,5.71592273 37.1274906,5.2190992 C37.1004064,4.42765213 36.5190758,3.84594986 35.712043,3.80898045 C35.2433674,3.7871006 34.7731216,3.80483083 34.2137725,3.80483083 L34.2137725,22.0862017 L30.2771325,22.0862017 L30.2771325,0.0377238829 C30.476143,0.0252750015 30.6786863,0.0026406718 30.8820146,0.00188619414 C32.4827343,-0.00113171649 34.083454,0.000377238829 35.6845663,0.000377238829 C38.4640406,0.000754477658 40.8411761,1.95409713 41.0331211,4.60646334 C41.1626546,6.40098845 41.0637381,8.21814789 40.9518683,10.0190861 C40.8757183,11.252657 40.2229481,12.2810101 39.3166063,13.1675213 C39.1635213,13.3172851 39.1289791,13.6899971 39.1953159,13.9182266 C39.9379745,16.463457 40.7116426,19.0000109 41.4747125,21.5399599 C41.5261334,21.7097174 41.5642084,21.8832472 41.6183769,22.0941237 L37.545923,22.0941237 C36.5944408,18.6314485 35.6378557,15.1491569 34.67185,11.6329138" id="Fill-3"></path>
                    <path d="M61.4263127,0 L65.4722842,0 L65.4722842,0.715027987 C65.4722842,5.90901507 65.4710512,11.1037454 65.4755723,16.2977325 C65.4755723,16.6080487 65.4837924,16.925426 65.553664,17.2271946 C65.7016272,17.87124 66.3317038,18.3279809 67.0221987,18.3383867 C67.7640697,18.3487925 68.3892142,17.903944 68.5527958,17.2141873 C68.6140361,16.9566434 68.6181462,16.6842341 68.6181462,16.4185143 C68.6218453,11.2018574 68.6210233,5.98482885 68.6210233,0.768543595 L68.6210233,0.0104058127 L72.679736,0.0104058127 C72.6916552,0.25308423 72.7113837,0.470491389 72.7113837,0.687526911 C72.7130277,6.19368837 72.7159048,11.6998498 72.7113837,17.2063829 C72.7089176,19.8167554 70.1487433,22.0621811 67.1545436,22.0937702 C64.1065017,22.1261025 61.4041183,19.9364222 61.3893219,17.3267931 C61.3572633,11.6422462 61.3806908,5.95732777 61.3827458,0.272409311 C61.3827458,0.207744618 61.4024742,0.143079925 61.4263127,0" id="Fill-5"></path>
                    <polygon id="Fill-7" points="95.7412028 22.0941237 95.7412028 0 105.33764 0 105.33764 3.76823921 99.6981108 3.76823921 99.6981108 8.80944535 103.282342 8.80944535 103.282342 12.6453594 99.7164261 12.6453594 99.7164261 18.3013099 105.336446 18.3013099 105.336446 22.0941237"></polygon>
                    <polygon id="Fill-9" points="0 0 9.59643758 0 9.59643758 3.76620274 4.04556877 3.76620274 4.04556877 8.82169869 7.55007669 8.82169869 7.55007669 12.6672774 4.00480939 12.6672774 4.00480939 22.0941237 0 22.0941237"></polygon>
                    <polygon id="Fill-11" points="49.416423 3.74708049 45.8248492 3.74708049 45.8248492 0 57.1660936 0 57.1660936 3.75729052 53.6089425 3.75729052 53.6089425 22.0941237 49.416423 22.0941237"></polygon>
                    <path d="M21.1142289,17.3948455 C21.1121832,18.4490439 20.5111597,19.0893774 19.5505042,19.0776177 C18.6283076,19.0662374 18.0485593,18.4327321 18.0473319,17.40964 C18.0436496,13.4500421 18.0440588,9.49006495 18.0473319,5.53046712 C18.0481501,4.47702746 18.6679939,3.81051918 19.6077835,3.83327985 C20.5189334,3.85528183 21.111774,4.51003043 21.1138197,5.51567269 C21.1183202,7.51823227 21.1154563,9.52079186 21.1154563,11.5233514 C21.1154563,13.480769 21.1187294,15.4378073 21.1142289,17.3948455 M25.2493847,5.30020501 C25.2465207,2.34017992 22.7393242,0.00303849529 19.5750524,3.73933383e-06 C16.4132355,-0.00341036111 13.9191314,2.331455 13.9129943,5.30589518 C13.9093121,7.35207938 13.9121761,9.39902227 13.9121761,11.4455858 C13.9121761,13.4921494 13.9101304,15.5387129 13.9125852,17.5852765 C13.9170857,20.5824773 16.3776405,22.9059623 19.5492768,22.9124112 C22.7646908,22.9188601 25.2481572,20.5987891 25.2497938,17.5799656 C25.2526578,13.4868385 25.2538852,9.39333211 25.2493847,5.30020501" id="Fill-13"></path>
                </g>
            </g>
        </g>
    </g>
</svg>