<?xml version="1.0" encoding="UTF-8"?>
<svg width="245px" height="20px" viewBox="0 0 245 20" version="1.1" xmlns="http://www.w3.org/2000/svg" xmlns:xlink="http://www.w3.org/1999/xlink">
    <!-- Generator: Sketch 51.2 (57519) - http://www.bohemiancoding.com/sketch -->
    <title>WSJ_Logo</title>
    <desc>Created with Sketch.</desc>
    <defs></defs>
    <g id="Desktop" stroke="none" stroke-width="1" fill="none" fill-rule="evenodd" opacity="0.600000024">
        <g id="Desktop-001" transform="translate(-300.000000, -2849.000000)" fill="#7D91A5" fill-rule="nonzero">
            <g id="Featured" transform="translate(298.000000, 2731.000000)">
                <g id="WSJ_Logo" transform="translate(2.191406, 118.015438)">
                    <path d="M243.36122,17.1843185 C242.646515,17.1843185 242.050477,17.7067747 242.050477,18.4119386 C242.050477,19.1167649 242.646515,19.6392211 243.36122,19.6392211 C244.075925,19.6392211 244.671963,19.1167649 244.671963,18.4119386 C244.671963,17.7067747 244.075925,17.1843185 243.36122,17.1843185 Z M195.912093,19.4975789 L201.79546,19.4975789 L201.79546,18.9884722 L201.155399,18.84683 C200.5726,18.7051878 200.31002,18.3940874 200.31002,17.6013303 L200.31002,9.90470566 L201.679428,9.90470566 C202.524053,9.90470566 202.961058,10.1027119 203.019074,11.8291363 L203.164868,15.4510773 C203.281277,18.7051878 204.242688,19.6110391 205.874298,19.6110391 C207.534163,19.6110391 207.971168,18.5071815 207.971168,16.9509474 L207.971168,16.2998325 L207.358985,16.2998325 L207.358985,16.7807571 C207.358985,17.8282506 207.213944,18.5639116 206.805571,18.5639116 C206.427335,18.5639116 206.397951,18.2809932 206.31055,16.9791294 L206.136124,14.489228 C205.90293,11.1498394 205.465925,9.98961778 202.931673,9.53650915 C205.349516,8.9143083 206.834956,7.18788391 206.834956,4.72579852 C206.834956,1.52805211 204.242688,0 201.766829,0 L191.834385,0 L191.834385,0.509472703 L192.387799,0.622566859 C193.436234,0.849121171 193.465619,1.38677591 193.465619,3.67903707 L193.465619,14.9416046 C193.465619,17.4604201 192.737026,18.6770058 191.076408,18.6770058 C189.591721,18.6770058 188.775728,17.9695268 188.775728,15.224523 L188.775728,1.83951854 C188.775728,1.04712744 189.037554,0.820939132 189.678369,0.679296937 L190.464978,0.509472703 L190.464978,3.3287552e-14 L184.3778,0 L184.3778,0.509472703 L185.017862,0.679296937 C185.600661,0.849121171 185.804471,1.07567548 185.804471,1.86770058 L185.804471,15.0265167 C185.804471,17.9977088 187.581499,19.6392211 190.290552,19.6392211 C192.999229,19.6392211 194.338875,17.9977088 194.338875,14.9416046 L194.338875,2.66009167 C194.338875,1.13203956 194.659848,0.59438482 195.940724,0.59438482 C196.960528,0.59438482 197.39791,0.934033288 197.39791,1.86770058 L197.39791,17.6013303 C197.39791,18.3940874 197.135707,18.6770058 196.552908,18.818648 L195.912093,18.9884722 L195.912093,19.4975789 Z M235.917993,1.93245583 C235.917993,1.13697658 236.188873,0.881129281 236.789319,0.767174305 L237.600794,0.596609438 L237.600794,0.0566098912 L231.350723,0.0566098912 L231.350723,0.568304492 L232.011796,0.738869359 C232.613018,0.909434226 232.883122,1.13697658 232.883122,1.93245583 L232.883122,17.8490252 C232.883122,18.6161995 232.553168,19.0426117 231.620826,19.0426117 C230.539248,19.0426117 230.388845,18.7014819 229.998653,17.0248734 L226.152695,0 L224.95025,0 L221.285008,16.4845062 C220.863725,18.3316796 220.653472,18.7584594 219.841997,18.9856342 L219.330938,19.1278941 L219.330938,19.6392211 L223.628105,19.6392211 L223.628105,19.1278941 L222.997346,19.0139391 C222.095706,18.8433742 221.855528,18.3890247 222.306348,16.2286589 L224.469894,5.68414771 L226.843304,16.8539409 C227.20396,18.4739396 227.174423,18.7867644 225.881814,19.0139391 L225.251055,19.1278941 L225.251055,19.6392211 L241.176649,19.6392211 L241.176649,13.1592265 L240.60574,13.1592265 C240.305323,16.1433765 239.674564,18.9573292 237.120438,18.9573292 L235.917993,18.9573292 L235.917993,1.93245583 Z M227.195394,14.7294158 L227.195394,13.9111149 L222.951479,13.9111149 L222.826252,14.7294158 L227.195394,14.7294158 Z M210.549246,2.22338456 L210.549246,15.848297 C210.549246,17.9006236 210.549246,18.869829 209.453882,19.040887 L208.906003,19.1264159 L208.906003,19.6392211 L213.379166,19.6392211 L213.379166,19.1264159 C211.431677,18.869829 211.431677,18.2427395 211.431677,16.0193549 L211.431677,3.07867426 L210.701566,2.4515847 L218.157362,19.6392211 L219.434959,19.6392211 L219.434959,3.79129279 C219.434959,1.45399249 219.434959,0.940818671 220.652729,0.627089561 L221.078595,0.51317382 L221.078595,0 L216.483025,0 L216.483025,0.51317382 L217.000598,0.627089561 C218.552527,0.883676471 218.552527,1.45399249 218.552527,3.62023485 L218.552527,13.5393834 L218.857167,13.4538545 L213.196933,3.35293729e-14 L208.844997,0 L208.844997,0.51317382 L209.270862,0.627089561 C209.758522,0.769760731 210.032067,1.28293455 210.549246,2.22338456 Z M200.980541,0.818300879 L202.17591,0.818300879 C203.370506,0.818300879 204.475855,1.52270549 204.475855,5.04542944 C204.475855,8.64910736 203.639792,9.00130967 201.966894,9.00130967 L200.980541,9.00130967 L200.980541,0.818300879 Z M180.882487,9.62461941 C180.882487,17.6780055 180.187974,18.8209202 178.683322,18.8209202 C177.179044,18.8209202 176.513345,17.6780055 176.513345,9.68012521 C176.513345,1.9331023 177.237045,0.818300879 178.683322,0.818300879 C180.187974,0.818300879 180.882487,1.9331023 180.882487,9.62461941 Z M184.3778,9.80562017 C184.3778,4.43912896 182.499768,0 178.682388,0 C174.83475,0 173.018031,4.43912896 173.018031,9.80562017 C173.018031,15.2000921 174.896064,19.6392211 178.682388,19.6392211 C182.592136,19.6392211 184.3778,15.2000921 184.3778,9.80562017 Z M171.518768,1.87038455 C171.518768,1.07722128 171.732948,0.822118863 172.34461,0.680273121 L173.018031,0.51020484 L173.018031,0 L166.682091,0 L166.682091,0.51020484 L167.446965,0.680273121 C168.059022,0.822118863 168.396326,1.02040968 168.396326,1.84216202 L168.396326,15.4732813 C168.396326,17.3718884 168.212234,18.9021364 166.682091,18.9021364 C165.702246,18.9021364 164.967856,18.1936407 164.998736,17.6838024 C165.089793,16.8048719 166.682091,16.8620501 166.804424,15.4446922 C166.896272,14.4246491 166.191971,13.9994784 165.549429,13.9148107 C164.600464,13.8011875 163.437713,14.5379057 163.406438,16.0117087 C163.375558,17.9103158 164.722796,19.6392211 167.018604,19.6392211 C169.559472,19.6392211 171.518768,18.0521615 171.518768,15.0195215 L171.518768,1.87038455 Z M72.5192686,1.93245583 C72.5192686,1.13697658 72.7893904,0.881129281 73.3894023,0.767174305 L74.1997676,0.596609438 L74.1997676,0.0566098912 L67.9582468,0.0566098912 L67.9582468,0.568304492 L68.6184151,0.738869359 C69.218427,0.909434226 69.4885488,1.13697658 69.4885488,1.93245583 L69.4885488,17.8490252 C69.4885488,18.6161995 69.1582706,19.0426117 68.2279805,19.0426117 C67.1478815,19.0426117 66.9678003,18.7014819 66.5777538,17.0248734 L62.7366686,0 L61.5366448,0 L57.8756409,16.4845062 C57.4557102,18.3316796 57.2453567,18.7584594 56.4353795,18.9856342 L55.9250201,19.1278941 L55.9250201,19.6392211 L60.2163082,19.6392211 L60.2163082,19.1278941 L59.586024,19.0139391 C58.6860062,18.8433742 58.4457686,18.3890247 58.8959715,16.2286589 L61.0565577,5.62717023 L63.4271092,16.8539409 C63.7569993,18.4739396 63.7569993,18.7867644 62.4669349,19.0139391 L61.8366508,19.1278941 L61.8366508,19.6392211 L77.770731,19.6392211 L77.770731,13.1592265 L77.2006033,13.1592265 C76.9005973,16.1433765 76.2703132,18.9573292 73.7196805,18.9573292 L72.5192686,18.9573292 L72.5192686,1.93245583 Z M154.378578,0.68423176 L155.014475,0.68423176 C156.80597,0.68423176 157.41235,3.50595045 157.614477,6.49909575 L158.162947,6.49909575 L158.162947,0 L147.677006,0 L147.677006,6.49909575 L148.22585,6.49909575 C148.42835,3.50595045 149.035105,0.68423176 150.825852,0.68423176 L151.461375,0.68423176 L151.461375,17.729197 C151.461375,18.5277131 151.201711,18.8126868 150.623725,18.955358 L149.872755,19.1264159 L149.872755,19.6392211 L156.112536,19.6392211 L156.112536,19.1264159 L155.216602,18.9269712 C154.667758,18.7843 154.378578,18.6132421 154.378578,17.729197 L154.378578,0.68423176 Z M141.680837,9.77683131 L142.596213,9.80558674 C143.925723,9.83398826 144.309295,10.3187606 144.575961,13.4258216 L145.1368,13.4258216 L145.1368,5.50148879 L144.575961,5.50148879 C144.25046,7.98146026 143.895924,9.03582601 142.626012,9.06458144 L141.680837,9.09298296 L141.680837,0.68423176 L143.719038,0.68423176 C145.993723,0.68423176 146.495728,3.44917691 146.820465,6.49909575 L147.381687,6.49909575 L147.381687,0 L137.191065,0 L137.191065,0.51317382 L137.84092,0.68423176 C138.519811,0.855289701 138.697461,1.25454778 138.697461,1.91002411 L138.697461,17.729197 C138.697461,18.5277131 138.431941,18.8126868 137.84092,18.955358 L137.191065,19.1264159 L137.191065,19.6392211 L147.677006,19.6392211 L147.677006,13.140494 L147.115785,13.140494 C146.761248,16.1048839 146.377295,18.955358 143.719038,18.955358 L141.680837,18.955358 L141.680837,9.77684606 L141.680837,9.77683131 Z M129.611486,9.77683131 L130.502159,9.80558674 C131.79488,9.83398826 132.168316,10.3187606 132.426935,13.4258216 L132.972783,13.4258216 L132.972783,5.50148879 L132.426935,5.50148879 C132.111093,7.98146026 131.766269,9.03582601 130.531142,9.06458144 L129.611486,9.09298296 L129.611486,0.68423176 L131.593856,0.68423176 C133.806234,0.68423176 134.294488,3.50595045 134.610329,6.49909575 L135.156178,6.49909575 L135.156178,0 L124.957467,0 L124.957467,0.51317382 L125.876752,0.68423176 C126.537418,0.855289701 126.70983,1.25454778 126.70983,1.91002411 L126.70983,17.729197 C126.70983,18.5277131 126.451212,18.8126868 125.876752,18.955358 L125.244697,19.1264159 L125.244697,19.6392211 L135.443408,19.6392211 L135.443408,13.140494 L134.897931,13.140494 C134.553106,16.1048839 134.179298,18.955358 131.593856,18.955358 L129.611486,18.955358 L129.611486,9.77684606 L129.611486,9.77683131 Z M117.966839,0.818300879 L118.947031,0.818300879 C120.25339,0.818300879 121.462153,1.52270549 121.462153,5.04542944 C121.462153,8.5947876 120.54787,9.00130967 118.71846,9.00130967 L117.966839,9.00130967 L117.966839,0.818300879 Z M113.597697,19.5255979 L119.714888,19.5255979 L119.714888,19.0157596 L119.048298,18.8739138 C118.442807,18.7320681 118.170218,18.4205206 118.170218,17.6266243 L118.170218,9.91893922 L119.29073,9.91893922 C120.168811,9.91893922 120.623125,10.2590758 120.683831,11.8461354 L120.835008,15.4732813 C120.95642,18.7320681 121.955521,19.6392211 123.651368,19.6392211 C125.377372,19.6392211 125.831295,18.5337773 125.831295,16.9753067 L125.831295,16.3232562 L125.195646,16.3232562 L125.195646,16.8048719 C125.195646,17.8538707 125.044469,18.5905889 124.620311,18.5905889 C124.226703,18.5905889 124.196154,18.3072639 124.105683,17.0035293 L123.923565,14.5100497 C123.681525,11.0808281 123.197053,10.0039734 120.592968,9.55021359 C123.10619,8.9271186 124.650469,7.19821326 124.650469,4.73258973 C124.650469,1.53024799 121.955521,0 119.381593,0 L113.597697,0 L113.597697,0.51020484 L114.263895,0.680273121 C114.869778,0.850341401 115.141975,1.07722128 115.141975,1.87038455 L115.141975,17.6266243 C115.141975,18.4205206 114.869778,18.7038455 114.263895,18.8456913 L113.597697,19.0157596 L113.597697,19.5255979 Z M108.939873,0.68423176 L109.575396,0.68423176 C111.366144,0.68423176 111.972898,3.50595045 112.175398,6.49909575 L112.723869,6.49909575 L112.723869,0 L102.237927,0 L102.237927,6.49909575 L102.786771,6.49909575 C102.988898,3.50595045 103.595652,0.68423176 105.386773,0.68423176 L106.022296,0.68423176 L106.022296,17.729197 C106.022296,18.5277131 105.761885,18.8126868 105.184646,18.955358 L104.433302,19.1264159 L104.433302,19.6392211 L110.528494,19.6392211 L110.528494,19.1264159 L109.777523,18.955358 C109.026552,18.7843 108.939873,18.2143527 108.939873,17.729197 L108.939873,0.68423176 Z M102.237927,14.4826091 C102.237927,8.70647476 95.7918585,7.18500089 95.7918585,2.9868263 C95.7918585,2.08523915 96.1357278,0.732494004 97.5678994,0.732494004 C99.6307452,0.732494004 100.404451,3.3530733 100.748321,6.53705346 L101.292657,6.53705346 L101.292657,0.112607287 L100.948788,0.112607287 C100.805385,0.732494004 100.547483,1.01455886 100.175452,1.01455886 C99.5162455,1.01455886 99.1723762,0 97.5968022,0 C95.1615548,0 93.4996429,2.00069258 93.4996429,4.62090745 C93.4996429,9.38284733 99.9460823,11.3831755 99.9460823,15.7788684 C99.9460823,17.7791965 99.0004415,18.9063627 97.7113018,18.9063627 C95.7918585,18.9063627 94.5312511,16.6808199 94.1873817,13.1021676 L93.6430453,13.1021676 L93.6430453,19.5262494 L93.9869147,19.5262494 C94.273349,18.5966015 94.6457507,18.5120549 94.9607173,18.5120549 C95.5054242,18.5120549 96.0782928,19.6392211 97.7398341,19.6392211 C100.289952,19.6392211 102.237927,17.4697998 102.237927,14.4826091 Z M82.2386165,1.88126868 C82.2386165,1.08348984 82.5032224,0.82690293 83.090982,0.712618531 L83.8847997,0.541560591 L83.8847997,0 L77.770731,0 L77.770731,0.51317382 L78.4174187,0.68423176 C79.0051783,0.855289701 79.2697842,1.08348984 79.2697842,1.88126868 L79.2697842,17.729197 C79.2697842,18.5277131 79.0051783,18.8126868 78.4174187,18.955358 L77.770731,19.1264159 L77.770731,19.6392211 L87.3828438,19.6392211 L87.3828438,13.140494 L86.823978,13.140494 C86.5304783,16.1332706 85.9130646,18.955358 83.414516,18.955358 L82.2386165,18.955358 L82.2386165,1.88126868 Z M62.9156476,14.7294158 L62.9156476,13.9111149 L58.6725344,13.9111149 L58.5465054,14.7294158 L62.9156476,14.7294158 Z M45.6224043,19.6392211 L46.8185214,19.6392211 L49.5314808,5.6561045 L49.1232163,5.6561045 L52.0987932,19.6392211 L53.1492631,19.6392211 L56.7085603,3.15502339 C57.0877709,1.42110223 57.2919031,0.824503957 57.9922164,0.653574693 L58.5465054,0.511685024 L58.5465054,0 L54.4329193,3.3432099e-14 L54.4329193,0.511685024 L55.0456935,0.625270277 C55.9207078,0.795831951 56.1248401,1.30751697 55.7165755,3.41049831 L53.4118806,14.4664972 L53.7620373,14.4664972 L51.4279111,2.81390004 C51.1943476,1.70524916 51.0487005,0.795831951 52.0116313,0.625270277 L52.6530821,0.511685024 L52.6530821,6.6864198e-14 L47.0226536,6.6864198e-14 L47.0226536,0.511685024 L47.4018642,0.596965861 C47.9855844,0.73885553 48.0731236,1.08034647 48.3063098,2.16032535 L49.2107554,6.39496003 L49.0356771,3.8369025 L47.0226536,14.1823503 L47.2852711,14.1823503 L44.922091,2.81390004 C44.6594735,1.64864032 44.5719344,0.767527535 45.5054339,0.596965861 L45.9435071,0.511685024 L45.9435071,0 L40.1961082,0 L40.1961082,0.511685024 L40.7503971,0.653574693 C41.2752548,0.795831951 41.5673035,1.05167446 41.9174602,2.61466636 L45.6224043,19.6392211 Z M29.8306335,9.77683131 L30.7463578,9.80558674 C32.0754379,9.83398826 32.4593774,10.3187606 32.7252698,13.4258216 L33.2864709,13.4258216 L33.2864709,5.50148879 L32.7252698,5.50148879 C32.4005448,7.98146026 32.0460216,9.03582601 30.7757741,9.06458144 L29.8306335,9.09298296 L29.8306335,0.68423176 L31.86876,0.68423176 C34.1429807,0.68423176 34.6453492,3.50595045 34.9700742,6.49909575 L35.5312753,6.49909575 L35.5312753,0 L25.3410247,0 L25.3410247,0.51317382 L25.9908566,0.68423176 C26.6701048,0.855289701 26.8473664,1.25454778 26.8473664,1.91002411 L26.8473664,17.729197 C26.8473664,18.5277131 26.581474,18.8126868 25.9908566,18.955358 L25.3410247,19.1264159 L25.3410247,19.6392211 L35.826966,19.6392211 L35.826966,13.140494 L35.2653828,13.140494 C34.9112417,16.1048839 34.5273022,18.955358 31.86876,18.955358 L29.8306335,18.955358 L29.8306335,9.77684606 L29.8306335,9.77683131 Z M11.3597697,19.6392211 L17.2651907,19.6392211 L17.2651907,19.1264159 L16.6027403,18.9837448 C16.0841065,18.869829 15.7383506,18.5277131 15.7383506,17.729197 L15.7383506,9.94827266 L20.0882428,9.94827266 L20.0882428,17.729197 C20.0882428,18.5277131 19.7428595,18.869829 19.2242256,18.9837448 L18.5617753,19.1264159 L18.5617753,19.6392211 L24.4671963,19.6392211 L24.4671963,19.1264159 L23.8334347,18.955358 C23.2574233,18.8126868 22.9977338,18.4989577 22.9977338,17.7011789 L22.9977338,1.88126868 C22.9977338,1.08348984 23.2574233,0.82690293 23.8334347,0.68423176 L24.4671963,0.51317382 L24.4671963,0 L18.5617753,0 L18.5617753,0.51317382 L19.2242256,0.68423176 C19.7137981,0.82690293 20.0882428,1.02634764 20.0882428,1.85288191 L20.0882428,9.17851193 L15.7383506,9.17851193 L15.7383506,1.85288191 C15.7383506,1.05473441 16.0554177,0.82690293 16.6027403,0.68423176 L17.2651907,0.51317382 L17.2651907,0 L11.3597697,0 L11.3597697,0.51317382 L11.9935313,0.68423176 C12.5699153,0.855289701 12.8288596,1.08348984 12.8288596,1.88126868 L12.8288596,17.729197 C12.8288596,18.5277131 12.5699153,18.8126868 11.9935313,18.955358 L11.3597697,19.1264159 L11.3597697,19.6392211 Z M6.7015725,0.68423176 L7.33746905,0.68423176 C9.1282165,0.68423176 9.7349709,3.50595045 9.93709753,6.49909575 L10.4859413,6.49909575 L10.4859413,0 L0,0 L0,6.49909575 L0.548843731,6.49909575 C0.75097066,3.50595045 1.35772506,0.68423176 3.14847251,0.68423176 L3.78399544,0.68423176 L3.78399544,17.729197 C3.78399544,18.5277131 3.52433146,18.8126868 2.94634558,18.955358 L2.19537492,19.1264159 L2.19537492,19.6392211 L8.43515651,19.6392211 L8.43515651,19.1264159 L7.53959598,18.9269712 C6.99075225,18.7843 6.7015725,18.6132421 6.7015725,17.729197 L6.7015725,0.68423176 Z" id="path13406"></path>
                </g>
            </g>
        </g>
    </g>
</svg>