<svg width="42" height="68" viewBox="0 0 42 68" fill="none" xmlns="http://www.w3.org/2000/svg">
<path d="M1 2C1 1.44771 1.44772 1 2 1H40C40.5523 1 41 1.44772 41 2V28V66C41 66.5523 40.5523 67 40 67H2C1.44771 67 1 66.5523 1 66V28V2Z" fill="white"/>
<path d="M41 28V2C41 1.44772 40.5523 1 40 1H2C1.44772 1 1 1.44771 1 2V28M41 28V66C41 66.5523 40.5523 67 40 67H2C1.44771 67 1 66.5523 1 66V28M41 28H1" stroke="#46475C" stroke-width="2"/>
<path d="M12.7648 11.1411C12.9187 11.0488 13.0948 11 13.2743 11H28.7345C28.9082 11 29.0787 11.0472 29.2277 11.1366C33.6541 13.7924 33.6541 20.2076 29.2277 22.8634C29.0787 22.9528 28.9082 23 28.7345 23H13.2743C13.0948 23 12.9187 22.9512 12.7648 22.8589C8.34182 20.2051 8.34182 13.7949 12.7648 11.1411Z" fill="white"/>
<path d="M13.2743 12H28.7345V10H13.2743V12ZM28.7345 22H13.2743V24H28.7345V22ZM28.7132 11.9941C32.4922 14.2615 32.4922 19.7385 28.7132 22.0059L29.7422 23.7209C34.8159 20.6766 34.8159 13.3234 29.7422 10.2791L28.7132 11.9941ZM13.2793 22.0014C9.50365 19.736 9.50365 14.264 13.2793 11.9986L12.2503 10.2836C7.17998 13.3258 7.17998 20.6742 12.2503 23.7164L13.2793 22.0014ZM13.2743 22C13.276 22 13.2778 22.0005 13.2793 22.0014L12.2503 23.7164C12.5596 23.902 12.9136 24 13.2743 24V22ZM28.7345 24C29.0895 24 29.4378 23.9035 29.7422 23.7209L28.7132 22.0059C28.7196 22.002 28.727 22 28.7345 22V24ZM28.7345 12C28.727 12 28.7196 11.998 28.7132 11.9941L29.7422 10.2791C29.4378 10.0965 29.0895 10 28.7345 10V12ZM13.2743 10C12.9136 10 12.5596 10.098 12.2503 10.2836L13.2793 11.9986C13.2778 11.9995 13.276 12 13.2743 12V10Z" fill="#46475C"/>
<circle cx="21" cy="17" r="3" fill="#46475C"/>
<circle cx="21" cy="47" r="11" fill="white" stroke="#017AFF" stroke-width="2"/>
<circle cx="21" cy="47" r="8" fill="#46475C"/>
</svg>
