<svg width="74" height="56" viewBox="0 0 74 56" fill="none" xmlns="http://www.w3.org/2000/svg">
<path d="M7 3C7 1.89543 7.89543 1 9 1H65C66.1046 1 67 1.89543 67 3V39C67 40.1046 66.1046 41 65 41H37H9C7.89543 41 7 40.1046 7 39V3Z" fill="#017AFF"/>
<path d="M57 49.5C57.5523 49.5 58 49.0523 58 48.5C58 47.9477 57.5523 47.5 57 47.5V49.5ZM17 47.5C16.4477 47.5 16 47.9477 16 48.5C16 49.0523 16.4477 49.5 17 49.5V47.5ZM9 2H65V0H9V2ZM66 3V39H68V3H66ZM8 39V3H6V39H8ZM65 40H37V42H65V40ZM37 40H9V42H37V40ZM36 41V48.5H38V41H36ZM37 49.5H57V47.5H37V49.5ZM37 47.5H17V49.5H37V47.5ZM6 39C6 40.6569 7.34315 42 9 42V40C8.44772 40 8 39.5523 8 39H6ZM66 39C66 39.5523 65.5523 40 65 40V42C66.6569 42 68 40.6569 68 39H66ZM65 2C65.5523 2 66 2.44772 66 3H68C68 1.34314 66.6569 0 65 0V2ZM9 0C7.34315 0 6 1.34315 6 3H8C8 2.44772 8.44772 2 9 2V0Z" fill="#46475C"/>
<mask id="path-3-inside-1" fill="white">
<rect x="8" y="2" width="58" height="38" rx="1"/>
</mask>
<rect x="8" y="2" width="58" height="38" rx="1" stroke="white" stroke-width="4" mask="url(#path-3-inside-1)"/>
<path d="M63 26C63 25.4477 63.4477 25 64 25H72C72.5523 25 73 25.4477 73 26V46.3729C73 46.9252 72.5523 47.3729 72 47.3729H68H64C63.4477 47.3729 63 46.9252 63 46.3729V26Z" fill="white"/>
<path d="M68 47.3729H72C72.5523 47.3729 73 46.9252 73 46.3729V26C73 25.4477 72.5523 25 72 25H64C63.4477 25 63 25.4477 63 26V46.3729C63 46.9252 63.4477 47.3729 64 47.3729H68ZM68 47.3729V55M68 55H71M68 55H65" stroke="#46475C" stroke-width="2" stroke-linecap="round"/>
<circle cx="68" cy="42.375" r="2" fill="#46475C"/>
<circle cx="68" cy="36.375" r="2" fill="#46475C"/>
<circle cx="68.125" cy="31.125" r="1.125" fill="#017AFF"/>
<path d="M46.5 19.8253C47.1667 20.2102 47.1667 21.1725 46.5 21.5574L32.25 29.7846C31.5833 30.1695 30.75 29.6884 30.75 28.9186L30.75 12.4641C30.75 11.6943 31.5833 11.2132 32.25 11.5981L46.5 19.8253Z" fill="white" stroke="#46475C" stroke-width="2"/>
<path d="M1 26C1 25.4477 1.44772 25 2 25H10C10.5523 25 11 25.4477 11 26V46.3729C11 46.9252 10.5523 47.3729 10 47.3729H6H2C1.44772 47.3729 1 46.9252 1 46.3729V26Z" fill="white"/>
<path d="M6 47.3729H10C10.5523 47.3729 11 46.9252 11 46.3729V26C11 25.4477 10.5523 25 10 25H2C1.44772 25 1 25.4477 1 26V46.3729C1 46.9252 1.44772 47.3729 2 47.3729H6ZM6 47.3729V55M6 55H9M6 55H3" stroke="#46475C" stroke-width="2" stroke-linecap="round"/>
<ellipse cx="5.96667" cy="42.6187" rx="1.96667" ry="2" fill="#46475C"/>
<ellipse cx="5.96667" cy="36.5171" rx="1.96667" ry="2" fill="#46475C"/>
<ellipse cx="6.125" cy="31.2119" rx="1.125" ry="1.14407" fill="#017AFF"/>
</svg>
