<svg xmlns="http://www.w3.org/2000/svg" width="80" height="51" viewBox="0 0 80 51">
    <g fill="none" fill-rule="evenodd">
        <path fill="#FFF" d="M0 0H80V50H0z"/>
        <g stroke="#153454" stroke-linecap="round" stroke-linejoin="round" stroke-width="2">
            <path d="M18.1 25.2L18.1 32.6M6.3 25.2L6.3 32.6M.8 35.1v-3c0-.7.3-1 .7-1.5l2.2-2.2M4 32.1L10 35.8 10 37.3M20.4 15.5V20c0 1-.2 3-.7 3.7-.5.8-3 3-3 3-1.1 1-2.4 1.5-3.7 1.5h-1.4c-1.3 0-2.7-.5-3.7-1.5 0 0-2.5-2.2-3-3-.6-.8-.9-2.8-.9-3.7v-4.5" transform="translate(25 8)"/>
            <path fill="#71B6FF" fill-rule="nonzero" d="M2.5 9.6V11l-1.5.8v3h22.3v-3l-1.4-.8V9.5c0-3.7-3.3-8.9-9.7-8.9-6.3.1-9.7 5.2-9.7 9z" transform="translate(25 8)"/>
        </g>
        <g fill="#FFF" fill-rule="nonzero" stroke="#FFF" stroke-linecap="round" stroke-linejoin="round" stroke-width="4">
            <path d="M10.9 0.4H14.100000000000001V4.4H10.9z" transform="translate(40 23)"/>
            <path d="M8.1 6.9h0c-.2.4-.2.8-.2 1.2v-.4c0-1.2-1-2.2-2.2-2.2h-.2L10.9.4H5.1c-.5 0-.9.1-1.4.2L.4 1.7v1.7c1.7 0 3 1.4 3 3v.9h0v2.1H3c-.5 0-.9.5-.9 1.1v.4c0 .7-.3 1.4-.8 1.8l-.5.3c-.5.4-.8 1.1-.8 1.8v8.6c0 .6.2 1.1.5 1.5l.3.4c.3.4.8.6 1.2.6h7.3c.5 0 .9-.2 1.2-.6l.3-.4c.3-.4.5-.9.5-1.5v-8.6c0-.7-.3-1.4-.8-1.8l-.5-.4c-.5-.4-.8-1.1-.8-1.8v-.4c0-.6-.4-1.1-.9-1.1h-.4l1.2-1.6 2.3 2.1H14l-3.2-5.4-.8.7c-.8.3-1.6.9-1.9 1.8z" transform="translate(40 23)"/>
        </g>
        <g transform="translate(40 22)">
            <circle cx="17.4" cy="3.7" r="1" fill="#12FFCD" fill-rule="nonzero"/>
            <circle cx="21.9" cy="3.7" r="1" fill="#12FFCD" fill-rule="nonzero"/>
            <circle cx="21.9" cy=".8" r="1" fill="#12FFCD" fill-rule="nonzero"/>
            <circle cx="21.9" cy="6.6" r="1" fill="#12FFCD" fill-rule="nonzero"/>
            <circle cx="19.6" cy="2.2" r="1" fill="#12FFCD" fill-rule="nonzero"/>
            <circle cx="19.6" cy="5.2" r="1" fill="#12FFCD" fill-rule="nonzero"/>
            <path stroke="#153454" stroke-linecap="round" stroke-linejoin="round" stroke-width="2" d="M11.2 1.4H14.399999999999999V5.4H11.2zM11.2 6c-1.7 0-3 1.4-3 3v1.3"/>
            <path fill="#12FFCD" fill-rule="nonzero" stroke="#153454" stroke-linecap="round" stroke-linejoin="round" stroke-width="1.8" d="M3.8 8.4v-.9c0-1.7-1.4-3-3-3V2.8l3.3-1.1c.4-.1.9-.2 1.4-.2h5.8l-.6 4.2-2.5 1.7s-3.1-2.1-4.4 1"/>
            <path stroke="#153454" stroke-linecap="round" stroke-linejoin="round" stroke-width="2" d="M8.6 10.4c.5 0 .9.5.9 1.1v.4c0 .7.3 1.4.8 1.8l.5.4c.5.4.8 1.1.8 1.8v8.6c0 .6-.2 1.1-.5 1.5l-.3.4c-.3.4-.8.6-1.2.6H2.3c-.5 0-.9-.2-1.2-.6L.8 26c-.3-.4-.5-.9-.5-1.5v-8.6c0-.7.3-1.4.8-1.8l.5-.4c.5-.4.8-1.1.8-1.8v-.4c0-.6.4-1.1.9-1.1h5.3z"/>
            <path stroke="#12FFCD" stroke-linecap="round" stroke-width="2" d="M3.5 16.2L3.5 17.5M3.5 20.2L3.5 23.7"/>
            <path stroke="#153454" stroke-linecap="round" stroke-linejoin="round" stroke-width="2" d="M11.2 5.4L14.4 10.8 11.6 10.8 8.4 7.9M3.8 9.5v-.9c0-1.2 1-2.2 2.2-2.2 1.2 0 2.2 1 2.2 2.2V10.3H3.9v-.8h-.1z"/>
        </g>
    </g>
</svg>
