<?xml version="1.0" encoding="UTF-8"?>
<svg width="180px" height="61px" viewBox="0 0 180 61" version="1.1" xmlns="http://www.w3.org/2000/svg" xmlns:xlink="http://www.w3.org/1999/xlink">
    <!-- Generator: Sketch 51.2 (57519) - http://www.bohemiancoding.com/sketch -->
    <title>Partnership/antop_logo Copy 6</title>
    <desc>Created with Sketch.</desc>
    <defs>
        <path d="M4.90666676,0.656585752 C4.0600443,0.658142683 3.2024471,0.662813474 2.32917171,0.662813474 L0.621816406,20.5401435 L7.57509534,20.5401435 C7.82751426,17.6037728 8.07836536,14.7000977 8.32764865,11.7995364 L18.1359267,11.7995364 C17.8866434,14.7359071 17.6389279,17.6458099 17.3912125,20.5759529 C19.6551436,20.5759529 21.8312769,20.5712821 24.0089781,20.5821806 C24.3335167,20.5821806 24.347627,20.4327153 24.3633052,20.216302 L26.0173547,0.684610499 L19.0985678,0.684610499 C18.8947512,2.99820903 18.6925025,5.324263 18.4933895,7.60672292 L8.68197582,7.60672292 C8.8497325,5.75397578 9.01592135,3.89500092 9.17427111,2.07027853 C9.24482298,1.23264999 8.73057823,0.683053568 7.79929352,0.669041195 C7.25996365,0.662813474 6.72063378,0.658142683 6.1797361,0.656585752 L4.90666676,0.656585752 Z M28.5870106,0.683053568 C28.4803989,1.95350875 28.375355,3.19593918 28.2656077,4.49286218 L35.0668081,4.49286218 C35.2408361,1.97219191 35.8726673,0.667484265 33.9097574,0.665927334 L28.5870106,0.683053568 Z M99.3097749,7.35761406 C97.4534768,8.55177965 97.1916509,10.7922024 98.7673094,12.2744002 C100.791364,14.1769691 105.289438,15.1858599 108.141301,16.4827829 C108.909533,16.8689017 108.031554,17.5399387 107.464004,17.5399387 C103.958359,17.5414956 102.49088,17.5757481 97.7090313,16.9000403 L97.4268239,20.1742648 C101.228786,20.5868514 107.600404,21.0087795 111.098209,20.3891212 C117.444742,19.3023838 116.778418,14.8028551 113.130103,13.2957465 C111.175032,12.2572739 108.517578,11.4398855 106.48882,10.5913584 C106.018474,10.3951852 103.958359,9.58869527 105.391346,9.06556667 C107.765025,8.42722522 112.769504,9.16521021 115.376788,9.56067053 L115.715437,6.4935177 C113.840325,6.13386679 110.696847,5.7446342 107.547098,5.7446342 C104.376967,5.7446342 101.202133,6.14009451 99.3097749,7.35761406 Z M37.8982899,7.35761406 C36.040424,8.55177965 35.7785981,10.7922024 37.3573922,12.2744002 C39.3798792,14.1769691 43.877953,15.1858599 46.7298165,16.4827829 C47.4964801,16.8689017 46.6200691,17.5399387 46.0525185,17.5399387 C42.5468744,17.5414956 41.0793954,17.5757481 36.2975463,16.9000403 L36.013771,20.1742648 C39.8173008,20.5868514 46.1904866,21.0087795 49.6882916,20.3891212 C56.0316888,19.3023838 55.3669334,14.8028551 51.7201855,13.2957465 C49.7619791,12.2572739 47.1076609,11.4398855 45.0773348,10.5913584 C44.6085569,10.3951852 42.5453066,9.58869527 43.9782935,9.06556667 C46.3535398,8.42722522 51.3580193,9.16521021 53.9668707,9.56067053 L54.3039519,6.4935177 C52.4288399,6.13386679 49.2853621,5.7446342 46.1356129,5.7446342 C42.9654821,5.7446342 39.7906479,6.14009451 37.8982899,7.35761406 Z M127.100941,5.80846834 C123.128087,5.93146584 118.98434,7.5958244 117.353808,11.0786776 C115.875354,14.2345755 116.845835,17.9245005 120.409488,19.5686189 C124.421538,21.4198091 132.006648,21.0757275 135.706702,20.1073168 L136.228786,17.0884289 C133.315777,17.4465228 129.908906,18.0381564 127.075856,17.5710773 C125.355958,17.2877159 123.143765,16.4345181 123.107705,14.558417 L136.854346,14.558417 C137.39054,11.8337889 136.600359,9.65720021 135.038811,8.1952426 C133.27815,6.54801027 130.438829,5.80068369 127.607347,5.80068369 C127.43959,5.80068369 127.270266,5.80224062 127.100941,5.80846834 Z M127.613618,8.72148506 C129.628266,8.68411873 131.374817,9.66809872 131.371685,11.7263607 L123.414998,11.7263607 C123.70818,9.70390812 125.747913,8.75729446 127.613618,8.72148506 Z M65.7208126,5.80846834 C61.7479583,5.93146584 57.6026439,7.5958244 55.9721117,11.0786776 C54.4952258,14.2345755 55.4641382,17.9245005 59.0277917,19.5686189 C63.0398415,21.4198091 70.6249516,21.0757275 74.328141,20.1073168 L74.848657,17.0884289 C71.9340808,17.4465228 68.5272093,18.0381564 65.6941597,17.5710773 C63.9742618,17.2877159 61.7620687,16.4345181 61.7275766,14.558417 L75.4726491,14.558417 C76.0088433,11.8337889 75.2202302,9.65720021 73.6571143,8.1952426 C71.8964531,6.54801027 69.0587,5.80068369 66.2272182,5.80068369 C66.0578938,5.80068369 65.8901371,5.80224062 65.7208126,5.80846834 Z M66.2334895,8.72148506 C68.2481374,8.68411873 69.9946882,9.66809872 69.9899942,11.7263607 L62.0333014,11.7263607 C62.3264836,9.70390812 64.3662166,8.75729446 66.2334895,8.72148506 Z M86.7484061,5.99841385 C83.7585745,6.0373371 81.2986659,6.28644596 77.6566215,6.66322311 C77.3242438,11.3449127 76.9965695,15.9970207 76.6688953,20.6709256 L83.0452167,20.6709256 C83.3023391,16.8891418 83.5610293,13.127598 83.8197195,9.3286879 C84.7901997,9.25551218 85.7152131,9.15898249 86.6433622,9.12161616 C88.0575353,9.06868053 90.0282842,9.07802211 89.9577323,10.7984302 L89.3023838,20.6662548 L95.6473489,20.6662548 L96.3387572,10.376502 C96.340325,6.40788653 92.7076875,5.96883217 89.0687788,5.96883217 C88.2833012,5.96883217 87.4978237,5.98907226 86.7484061,5.99841385 Z M28.1009866,6.07781729 C27.6917858,10.8965168 27.2825849,15.7121024 26.8733841,20.5541559 L33.679288,20.5541559 C34.086921,15.7307856 34.4961219,10.913643 34.9053227,6.07781729 L28.1009866,6.07781729 Z" id="path-1"></path>
    </defs>
    <g id="Desktop" stroke="none" stroke-width="1" fill="none" fill-rule="evenodd">
        <g id="Desktop-001" transform="translate(-912.000000, -1880.000000)">
            <g id="Trusted-by" transform="translate(300.000000, 1739.000000)">
                <g id="Partnership/Hisense_logo" transform="translate(612.424479, 141.859375)">
                    <rect id="Rectangle-3" fill="#FFFFFF" fill-rule="nonzero" x="0" y="0" width="179" height="60"></rect>
                    <g id="Group-3" stroke-width="1" fill-rule="evenodd" transform="translate(0.000000, 20.000000)">
                        <mask id="mask-2" fill="white">
                            <use xlink:href="#path-1"></use>
                        </mask>
                        <g id="Clip-2"></g>
                        <path d="M5.70666676,0.956585752 C4.8600443,0.958142683 4.0024471,0.962813474 3.12917171,0.962813474 L1.42181641,20.8401435 L8.37509534,20.8401435 C8.62751426,17.9037728 8.87836536,15.0000977 9.12764865,12.0995364 L18.9359267,12.0995364 C18.6866434,15.0359071 18.4389279,17.9458099 18.1912125,20.8759529 C20.4551436,20.8759529 22.6312769,20.8712821 24.8089781,20.8821806 C25.1335167,20.8821806 25.147627,20.7327153 25.1633052,20.516302 L26.8173547,0.984610499 L19.8985678,0.984610499 C19.6947512,3.29820903 19.4925025,5.624263 19.2933895,7.90672292 L9.48197582,7.90672292 C9.6497325,6.05397578 9.81592135,4.19500092 9.97427111,2.37027853 C10.044823,1.53264999 9.53057823,0.983053568 8.59929352,0.969041195 C8.05996365,0.962813474 7.52063378,0.958142683 6.9797361,0.956585752 L5.70666676,0.956585752 Z M29.3870106,0.983053568 C29.2803989,2.25350875 29.175355,3.49593918 29.0656077,4.79286218 L35.8668081,4.79286218 C36.0408361,2.27219191 36.6726673,0.967484265 34.7097574,0.965927334 L29.3870106,0.983053568 Z M100.109775,7.65761406 C98.2534768,8.85177965 97.9916509,11.0922024 99.5673094,12.5744002 C101.591364,14.4769691 106.089438,15.4858599 108.941301,16.7827829 C109.709533,17.1689017 108.831554,17.8399387 108.264004,17.8399387 C104.758359,17.8414956 103.29088,17.8757481 98.5090313,17.2000403 L98.2268239,20.4742648 C102.028786,20.8868514 108.400404,21.3087795 111.898209,20.6891212 C118.244742,19.6023838 117.578418,15.1028551 113.930103,13.5957465 C111.975032,12.5572739 109.317578,11.7398855 107.28882,10.8913584 C106.818474,10.6951852 104.758359,9.88869527 106.191346,9.36556667 C108.565025,8.72722522 113.569504,9.46521021 116.176788,9.86067053 L116.515437,6.7935177 C114.640325,6.43386679 111.496847,6.0446342 108.347098,6.0446342 C105.176967,6.0446342 102.002133,6.44009451 100.109775,7.65761406 Z M38.6982899,7.65761406 C36.840424,8.85177965 36.5785981,11.0922024 38.1573922,12.5744002 C40.1798792,14.4769691 44.677953,15.4858599 47.5298165,16.7827829 C48.2964801,17.1689017 47.4200691,17.8399387 46.8525185,17.8399387 C43.3468744,17.8414956 41.8793954,17.8757481 37.0975463,17.2000403 L36.813771,20.4742648 C40.6173008,20.8868514 46.9904866,21.3087795 50.4882916,20.6891212 C56.8316888,19.6023838 56.1669334,15.1028551 52.5201855,13.5957465 C50.5619791,12.5572739 47.9076609,11.7398855 45.8773348,10.8913584 C45.4085569,10.6951852 43.3453066,9.88869527 44.7782935,9.36556667 C47.1535398,8.72722522 52.1580193,9.46521021 54.7668707,9.86067053 L55.1039519,6.7935177 C53.2288399,6.43386679 50.0853621,6.0446342 46.9356129,6.0446342 C43.7654821,6.0446342 40.5906479,6.44009451 38.6982899,7.65761406 Z M127.900941,6.10846834 C123.928087,6.23146584 119.78434,7.8958244 118.153808,11.3786776 C116.675354,14.5345755 117.645835,18.2245005 121.209488,19.8686189 C125.221538,21.7198091 132.806648,21.3757275 136.506702,20.4073168 L137.028786,17.3884289 C134.115777,17.7465228 130.708906,18.3381564 127.875856,17.8710773 C126.155958,17.5877159 123.943765,16.7345181 123.907705,14.858417 L137.654346,14.858417 C138.19054,12.1337889 137.400359,9.95720021 135.838811,8.4952426 C134.07815,6.84801027 131.238829,6.10068369 128.407347,6.10068369 C128.23959,6.10068369 128.070266,6.10224062 127.900941,6.10846834 Z M128.413618,9.02148506 C130.428266,8.98411873 132.174817,9.96809872 132.171685,12.0263607 L124.214998,12.0263607 C124.50818,10.0039081 126.547913,9.05729446 128.413618,9.02148506 Z M66.5208126,6.10846834 C62.5479583,6.23146584 58.4026439,7.8958244 56.7721117,11.3786776 C55.2952258,14.5345755 56.2641382,18.2245005 59.8277917,19.8686189 C63.8398415,21.7198091 71.4249516,21.3757275 75.128141,20.4073168 L75.648657,17.3884289 C72.7340808,17.7465228 69.3272093,18.3381564 66.4941597,17.8710773 C64.7742618,17.5877159 62.5620687,16.7345181 62.5275766,14.858417 L76.2726491,14.858417 C76.8088433,12.1337889 76.0202302,9.95720021 74.4571143,8.4952426 C72.6964531,6.84801027 69.8587,6.10068369 67.0272182,6.10068369 C66.8578938,6.10068369 66.6901371,6.10224062 66.5208126,6.10846834 Z M67.0334895,9.02148506 C69.0481374,8.98411873 70.7946882,9.96809872 70.7899942,12.0263607 L62.8333014,12.0263607 C63.1264836,10.0039081 65.1662166,9.05729446 67.0334895,9.02148506 Z M87.5484061,6.29841385 C84.5585745,6.3373371 82.0986659,6.58644596 78.4566215,6.96322311 C78.1242438,11.6449127 77.7965695,16.2970207 77.4688953,20.9709256 L83.8452167,20.9709256 C84.1023391,17.1891418 84.3610293,13.427598 84.6197195,9.6286879 C85.5901997,9.55551218 86.5152131,9.45898249 87.4433622,9.42161616 C88.8575353,9.36868053 90.8282842,9.37802211 90.7577323,11.0984302 L90.1023838,20.9662548 L96.4473489,20.9662548 L97.1387572,10.676502 C97.140325,6.70788653 93.5076875,6.26883217 89.8687788,6.26883217 C89.0833012,6.26883217 88.2978237,6.28907226 87.5484061,6.29841385 Z M28.9009866,6.37781729 C28.4917858,11.1965168 28.0825849,16.0121024 27.6733841,20.8541559 L34.479288,20.8541559 C34.886921,16.0307856 35.2961219,11.213643 35.7053227,6.37781729 L28.9009866,6.37781729 Z" id="Fill-1" fill="#B1BDC9" mask="url(#mask-2)"></path>
                    </g>
                </g>
            </g>
        </g>
    </g>
</svg>