<svg xmlns="http://www.w3.org/2000/svg" width="179" height="60" viewBox="0 0 179 60">
  <g fill="none" fill-rule="evenodd" transform="translate(2 6.392)">
    <path fill="#B1BDC9" d="M0.582042027,45.0756801 L74.5020549,45.0756801 L74.5020549,0.994877044 L12.1108711,0.994877044 C5.77000316,0.994877044 0.582042027,6.18283818 0.582042027,12.5237061 L0.582042027,45.0756801"/>
    <path fill="#FFF" d="M11.4453001,15.489349 L28.5077949,15.489349 L28.5077949,19.7445059 L22.6454108,19.7445059 L22.6454108,30.5123065 L17.4418989,30.5123065 L17.4418989,19.7445059 L11.4453001,19.7445059 L11.4453001,15.489349 Z M50.3223521,15.6295448 L55.316288,15.6295448 L55.316288,26.6365873 L63.6385576,26.6365873 L63.6385576,30.5288141 L50.3223521,30.5288141 L50.3223521,15.6295448 Z M38.7648139,14.7876525 C43.7455916,14.7319091 46.5207979,17.1972971 47.3227368,21.1974221 L42.689817,21.1974221 C42.2015242,19.4679422 40.9746916,18.4358526 38.8246244,18.4624084 C35.9864975,18.4990125 34.7012899,20.2619862 34.6711454,23.0582458 C34.6410009,25.8540269 36.2278926,27.5437927 38.8645778,27.6071918 C40.9758878,27.6569541 42.3465048,26.5205549 42.7859922,24.6154715 L47.5126949,24.6154715 C47.0789493,28.8091432 43.8910507,31.3838648 38.8499841,31.2807515 C33.2189469,31.1671116 29.8303243,28.1194087 29.8951588,23.0778636 C29.9590364,18.0348831 33.0445395,14.8527263 38.7648139,14.7876525 Z"/>
  </g>
</svg>
