<svg xmlns="http://www.w3.org/2000/svg" width="64" height="51" viewBox="0 0 64 51">
    <g fill="none" fill-rule="evenodd" transform="translate(2 2)">
        <path stroke="#017AFF" stroke-linecap="round" stroke-linejoin="round" stroke-width="2" d="M3 35c-2.181 0-4-1.586-4-3.615V2.615C-1 .585.819-1 3-1h54c2.18 0 4 1.586 4 3.615v28.77C61 33.414 59.18 35 57 35H3z"/>
        <path fill="#12FFCD" d="M5.7 31h48.6c1.49 0 2.7-.964 2.7-2.154V5.154C57 3.964 55.79 3 54.3 3H5.7C4.209 3 3 3.964 3 5.154v23.692C3 30.036 4.209 31 5.7 31z"/>
        <rect width="35" height="2" x="13" y="47" fill="#017AFF" rx="1"/>
        <path stroke="#017AFF" stroke-linecap="round" stroke-linejoin="round" stroke-width="2" d="M24 35h13v13H24z"/>
        <rect width="19" height="2" x="20" y="13" fill="#017AFF" rx="1" transform="rotate(-45 29.5 14)"/>
        <rect width="19" height="2" x="22" y="17" fill="#017AFF" rx="1" transform="rotate(-45 31.5 18)"/>
    </g>
</svg>
