<svg xmlns="http://www.w3.org/2000/svg" width="17" height="17" viewBox="0 0 17 17">
    <defs>
        <filter id="xsvmw3ebma">
            <feColorMatrix in="SourceGraphic" values="0 0 0 0 0.533333 0 0 0 0 0.560784 0 0 0 0 0.678431 0 0 0 1.000000 0"/>
        </filter>
    </defs>
    <g fill="none" fill-rule="evenodd" filter="url(#xsvmw3ebma)" transform="translate(-126)">
        <g fill="#017AFF" fill-rule="nonzero">
            <path d="M14.167 1.7h-.945V.85c0-.47-.423-.85-.944-.85-.522 0-.945.38-.945.85v.85H5.667V.85c0-.47-.423-.85-.945-.85-.521 0-.944.38-.944.85v.85h-.945C1.27 1.7 0 2.842 0 4.25v10.2C0 15.858 1.269 17 2.833 17h11.334C15.73 17 17 15.858 17 14.45V4.25c0-1.408-1.269-2.55-2.833-2.55zM2.833 3.4h.945v.85c0 .47.423.85.944.85.522 0 .945-.38.945-.85V3.4h5.666v.85c0 .47.423.85.945.85.521 0 .944-.38.944-.85V3.4h.945c.521 0 .944.38.944.85v3.4H1.89v-3.4c0-.47.423-.85.944-.85zm11.334 11.9H2.833c-.521 0-.944-.38-.944-.85v-5.1H15.11v5.1c0 .47-.423.85-.944.85z" transform="translate(126)"/>
            <path d="M10.167 11H6.833c-.46 0-.833.448-.833 1s.373 1 .833 1h3.334c.46 0 .833-.448.833-1s-.373-1-.833-1z" transform="translate(126)"/>
        </g>
    </g>
</svg>
