<svg xmlns="http://www.w3.org/2000/svg" width="15" height="15" viewBox="0 0 15 15">
    <defs>
        <filter id="0u35o2o2ma">
            <feColorMatrix in="SourceGraphic" values="0 0 0 0 0.533333 0 0 0 0 0.560784 0 0 0 0 0.678431 0 0 0 1.000000 0"/>
        </filter>
    </defs>
    <g fill="none" fill-rule="evenodd" filter="url(#0u35o2o2ma)" transform="translate(-226 -1)">
        <path fill="#017AFF" fill-rule="nonzero" d="M237.527 16c-6.363-.009-11.519-5.175-11.527-11.55 0-1.905 1.542-3.45 3.443-3.45.193-.001.387.016.576.053.184.027.365.072.54.135.25.088.435.302.486.562l1.025 4.5c.057.248-.017.508-.194.69-.098.105-.105.112-1.026.592.738 1.621 2.031 2.923 3.646 3.668.486-.93.494-.938.598-1.035.182-.178.441-.251.689-.195l4.49 1.027c.252.059.456.243.54.488.063.178.11.361.142.547.03.189.045.38.045.57-.029 1.897-1.58 3.414-3.473 3.398zm-8.084-13.5c-1.073.004-1.942.875-1.946 1.95.004 5.549 4.492 10.046 10.03 10.05 1.073-.004 1.942-.875 1.946-1.95v-.248L236 11.5l-.217.412c-.337.653-.584 1.125-1.213.87-2.512-.9-4.485-2.886-5.374-5.407-.27-.585.24-.855.883-1.192l.412-.203-.8-3.48h-.248z"/>
    </g>
</svg>
