<svg xmlns="http://www.w3.org/2000/svg" width="16" height="15" viewBox="0 0 16 15">
    <defs>
        <filter id="sv4fnegnya">
            <feColorMatrix in="SourceGraphic" values="0 0 0 0 0.533333 0 0 0 0 0.560784 0 0 0 0 0.678431 0 0 0 1.000000 0"/>
        </filter>
    </defs>
    <g fill="none" fill-rule="evenodd" filter="url(#sv4fnegnya)" transform="translate(-25 -2)">
        <path fill="#888FAD" fill-rule="nonzero" d="M37.077 16.91l-4.089-2.108-4.089 2.107c-.27.14-.599.117-.846-.061s-.37-.479-.316-.775l.801-4.443-3.303-3.156c-.21-.206-.287-.51-.2-.79.095-.285.347-.493.65-.536l4.57-.655 2.011-4.048c.134-.272.415-.445.722-.445s.588.173.722.445l2.036 4.04 4.57.655c.302.043.554.25.649.537.087.28.01.583-.2.789l-3.303 3.156.801 4.443c.059.302-.066.61-.32.79-.146.1-.32.15-.498.141-.128 0-.254-.03-.368-.087zm-3.72-3.694l3.022 1.579-.577-3.323c-.045-.257.042-.52.232-.702l2.406-2.312-3.368-.49c-.25-.049-.461-.213-.569-.441l-1.515-2.96-1.515 2.96c-.118.23-.342.39-.602.426l-3.367.49 2.405 2.311c.191.182.278.445.233.703l-.577 3.282 3.022-1.578c.128-.047.267-.058.401-.031.128-.004.256.026.369.086z"/>
    </g>
</svg>
